<svg width="300" height="226" xmlns="http://www.w3.org/2000/svg" xmlns:sketch="http://www.bohemiancoding.com/sketch/ns"><title>Untitled 2</title><g sketch:type="MSLayerGroup" transform="translate(1 1)" fill="none"><g stroke="#0A0203" stroke-width=".094" fill="#0A0203" sketch:type="MSShapeGroup"><path d="M23.767 2.523c1.012-1.559 2.919-2.271 4.688-2.421 1.484-.18 2.941.317 4.312.837 1.365.697 2.513 1.744 3.745 2.645 1.093.739 1.91 1.821 2.597 2.935.985 2.288 1.613 4.786 1.343 7.297-.425.495-.777 1.057-1.269 1.486-.841.62-1.808 1.039-2.773 1.419l3.164 3.485c1.173 1.147 1.826 2.685 2.719 4.039.782-.967 2.036-1.259 2.986-2.008 1.388-1.017 2.662-2.223 4.228-2.97.485-.165 1.014-.085 1.519-.125l.46.327c.049 1.706.915 3.22 1.445 4.801.863 2.728 1.732 5.463 2.867 8.091.297.012.591-.007.888-.017.344-1.724 1.276-3.223 2.088-4.749.816-1.336 1.38-2.825 2.377-4.047 1.244-1.599 2.328-3.355 3.857-4.699l.923.022c.092 2.038-.094 4.094.307 6.11.349 1.539.109 3.128.354 4.676.292 2.231-.183 4.552.529 6.725 1.041 1.814 2.84 2.998 4.01 4.711 1.774 1.954 3.552 3.91 5.289 5.901 1.002 1.164 1.724 2.546 2.771 3.675.826.922 1.472 1.998 2.333 2.893.421.427.759.927 1.069 1.441.512.857 1.316 1.484 1.843 2.333.524.719.985 1.539 1.692 2.086.678-.252 1.259-.817 2.048-.625l.453.5c.465.075 1.079-.002 1.314.517.534 1.064 1.373 1.949 1.796 3.073.873-.57 1.833-.992 2.716-1.549 1.289-.779 2.825-.537 4.252-.592 1.222-.07 2.409.512 3.626.187 1.328-.35 2.429.842 3.755.679.824-.245 1.551-.724 2.33-1.079 1.618-.655 3.275-1.202 4.93-1.749 1.791-.899 3.728-1.419 5.633-1.993 1.957-.297 3.908-.677 5.887-.812 1.012-.127 2.006-.52 3.04-.325 2.543.347 5.096.722 7.666.687 1.821-.107 3.646.11 5.435.445 1.447.265 2.691 1.107 4.114 1.451 1.254.38 2.395 1.064 3.651 1.449 2.365 1.039 4.247 2.928 6.62 3.962 1.539.982 3.238 1.686 4.735 2.733 1.212 1.032 2.639 1.794 3.728 2.975.658.662 1.153 1.499 1.947 2.016.695.472 1.509.829 1.952 1.591 1.912 1.267 3.201 3.233 4.782 4.861.779.787 1.326 1.849 2.325 2.386.19-.26.361-.535.534-.807.557-.287 1.118-.595 1.739-.727 1.865-.345 3.763-.49 5.657-.425 1.657-.075 3.156.759 4.777.964 1.365.107 2.536.897 3.837 1.254.764.26 1.608.252 2.345.61 1.024.487 2.08.899 3.109 1.374 1.487 1.017 2.909 2.131 4.46 3.05.905.717 1.722 1.549 2.696 2.183.527-.984 1.759-1.002 2.654-1.464 1.863-.879 3.758-1.741 5.455-2.925 1.296-.827 2.654-1.551 4.077-2.128 3.08-1.559 6.071-3.342 9.368-4.404.908-.432 1.986-.515 2.751-1.224-.735-1.212-.156-2.578.037-3.852.178-1.232.977-2.248 1.831-3.095 1.667-1.254 3.743-1.866 5.816-1.811 1.882-.18 3.671.839 4.873 2.238.693.972 1.276 2.046 1.704 3.16-.408.954-.544 1.983-.826 2.973-.341 1.154-1.385 1.841-2.182 2.658-1.311.997-2.592 2.166-4.282 2.416-1.408-.255-2.832-.427-4.245-.677-.737.647-1.202 1.566-2.038 2.098-.544.347-.873.922-1.353 1.336-1.301 1.019-2.523 2.138-3.829 3.145-1.741 1.177-3.555 2.241-5.301 3.405-1.049.782-1.989 1.729-3.186 2.293-2.335 1.134-4.131 3.073-6.224 4.569.547 1.192.774 2.491 1.027 3.772.19 1.666-.237 3.322-.223 4.991-.067 1.007.109 2.061-.27 3.023-.275.852-.863 1.569-1.039 2.458-.334 1.456-.982 2.808-1.422 4.229-.24.822-.789 1.491-1.158 2.253-.693 1.334-1.126 2.798-1.922 4.082-.356.61-.804 1.159-1.148 1.776-.717 1.336-1.737 2.466-2.513 3.76-1.039 1.104-2.229 2.091-3.045 3.39-1.096.944-1.979 2.161-3.34 2.745-.02.525-.032 1.049-.025 1.576-.393.669-.698 1.449-1.343 1.916-.492.312-1.061.01-1.553-.127-.213-1.174-.331-2.363-.351-3.555l-.104.462c-.062-.472-.136-.944-.208-1.411-.099-.659-.156-1.324-.203-1.986l-.757-.027c-.549-.565-1.096-1.139-1.469-1.839-1.054-.962-1.737-2.238-2.729-3.25-.641-.799-1.581-1.344-2.061-2.261-.903-.974-1.65-2.101-2.704-2.923-2.278-2.181-4.933-3.892-7.485-5.718-1.561-.862-3.109-1.764-4.789-2.371-2.417-1.481-5.328-1.551-7.943-2.488-1.185-.502-2.489-.265-3.728-.425-2.135-.337-4.309-.117-6.459-.115-2.283-.082-4.547.63-6.491 1.811-.737.48-1.687.277-2.437.739-2.033 1.129-4.186 2.016-6.357 2.825-1.741.899-3.419 1.929-5.202 2.753-1.685 1.087-3.577 1.796-5.217 2.963-2.639 1.366-5.046 3.13-7.706 4.457-2.442 1.666-5.264 2.705-7.555 4.609-1.769.992-3.255 2.383-4.779 3.707-.641.585-1.158 1.302-1.882 1.789-.952.62-1.467 1.704-2.397 2.358l-.082.555c-.292.17-.589.33-.866.525-.062.48.096.962.124 1.444.129.954-.069 1.939.208 2.878.425 1.599.725 3.235.834 4.889.453 4.239 1.383 8.459 3.159 12.341.7 1.247.965 2.678 1.605 3.952.549 1.112.95 2.301 1.598 3.362.646.867 1.059 1.884 1.694 2.76 1.039 1.534 1.697 3.29 2.696 4.849.416.794.999 1.536 1.126 2.451.314 1.784.732 3.562 1.395 5.251-.136.512-.158 1.099-.537 1.509-.71.812-1.516 1.581-2.526 1.993-1.655.792-3.52.809-5.311.937-1.224.177-2.486.31-3.693-.037-.416-.19-.735.167-1.041.387-1.474.21-2.793.952-4.252 1.217-1.022.38-1.974.939-3.035 1.227-2.137.974-4.522 1.224-6.845 1.224-1.915.182-3.824.395-5.729.669-2.075-.025-4.101.6-6.182.542-1.333-.032-2.679.057-4-.17-2.625-.385-5.088-1.421-7.565-2.328-1.252-.455-2.417-1.139-3.723-1.431-2.167-.527-4.193-1.511-6.103-2.658-.594-.422-1.044-1.009-1.558-1.516-2.145.829-4.005 2.283-6.216 2.958-2.585.737-4.722 2.451-7.161 3.53-2.612 1.504-5.408 2.643-8.042 4.107-2.778 1.549-5.709 2.78-8.604 4.089-.873.415-1.887.61-2.61 1.294.069 1.936-.354 3.872-1.088 5.651-.534.764-.955 1.589-1.306 2.453-1.816 2.486-4.502 4.152-7.268 5.378-.992.522-2.152.302-3.221.232-1.076-.2-2.234-.26-3.181-.872-1.333-.897-2.281-2.323-2.644-3.897-.03-1.069-.116-2.146-.002-3.21.26-1.087.856-2.051 1.262-3.085.522-1.356 1.66-2.308 2.647-3.317 1.088-.999 2.165-2.091 3.535-2.693 1.61-.56 3.31-.989 5.027-.772 1.032.16 2.271-.05 3.053.802.965-.664 1.529-1.696 2.259-2.578 2.442-1.744 4.559-3.922 7.015-5.651 1.326-1.244 2.729-2.406 3.958-3.747 1.331-1.244 2.348-2.805 3.807-3.91 1.385-1.099 2.432-2.568 3.864-3.602 1.254-.869 2.256-2.041 3.438-2.998 1.408-1.144 2.664-2.473 4.158-3.51l-.435-.487c-.46-1.699-.623-3.447-.559-5.204.109-1.919-.485-3.83-.121-5.738.198-1.616 1.111-3.01 1.561-4.552.472-1.172 1.049-2.303 1.652-3.41 1.459-1.826 2.315-4.052 3.706-5.928 1.247-1.824 2.479-3.662 3.926-5.333.72-.989 1.687-1.769 2.805-2.248-.27-1.067-.129-2.188-.418-3.25-.544-2.206-.772-4.474-1.168-6.707-.609-1.881-1.375-3.762-1.361-5.778-.613-2.728-1.412-5.563-.792-8.369.453-1.966.45-4.009.997-5.953.294-1.147.336-2.373.903-3.432.703-1.404.938-2.988 1.588-4.409 1.197-1.816 2.127-3.802 3.369-5.588.853-.989 1.712-1.976 2.545-2.98 2.12-2.016 4.284-3.987 6.429-5.978 1.962-1.674 3.377-3.935 5.539-5.391.853-.727 1.764-1.379 2.642-2.073.95-1.112 1.056-2.67 1.044-4.077-.082-1.466 1.069-2.7 2.377-3.158 1.101-.382 2.115-.957 3.092-1.594-.942-.972-1.502-2.226-2.31-3.3-.173-.297-.468-.57-.44-.942.148-.375.359-.719.554-1.067.369-.28.722-.577 1.069-.884-4.327-4.339-8.225-9.091-11.951-13.957-1.596-1.801-3.206-3.58-4.945-5.241-1.182-1.014-2.157-2.273-2.983-3.59-.416-2.663-.124-5.376-.586-8.034-.742 1.159-1.361 2.396-2.053 3.587-.992 1.876-1.831 3.862-3.181 5.516-.406.49-.898.942-1.118 1.556-.428 1.259-.139 2.653-.596 3.905-.327.087-.663.132-.997.19-.596-.787-.359-1.811-.626-2.708-.903-3.133-1.464-6.355-2.407-9.475-.49-1.102-.742-2.286-1.116-3.427-.369-1.184-.866-2.323-1.133-3.537-.542.332-1.017.752-1.529 1.124-1.318.782-2.877 1.142-4.022 2.208-.648.65-1.895.819-2.496.027-.707-.887-1.259-1.889-1.91-2.818-1.18-1.674-1.759-3.667-2.686-5.478-.502-1.471-1.259-2.823-1.905-4.229-1.489.182-3.001-.097-4.341-.769-1.071-.555-2.392-.832-3.065-1.941-1.066-1.119-1.769-2.496-2.553-3.815-.809-2.023-1.425-4.154-1.536-6.345-.101-.909.651-1.541 1.113-2.218zm.448 2.743c-.136.625.136 1.249.225 1.864.552 1.739.888 3.702 2.226 5.034.801 1.207 1.556 2.683 3.02 3.16 1.185.417 2.372.879 3.636.994.01-.605-.131-1.384.512-1.721.683-.06 1.192.435 1.682.832.757-.215 1.563-.347 2.241-.769.611-.742 1.121-1.691.95-2.69-.158-1.189-.208-2.418-.668-3.54l.042.287c-.71-2.476-2.776-4.167-4.787-5.568-1.64-.834-3.478-1.616-5.351-1.259-1.704.372-3.201 1.689-3.73 3.377zm12.408 14.282c.735 1.344 1.341 2.753 1.981 4.142.609 1.396 1.608 2.568 2.256 3.944.233.46.477.912.73 1.361 1.86-1.401 4.223-1.851 6.063-3.273l.829-1.057.784-.025c.383.635.792 1.307.767 2.081-.045 1.889 1.17 3.455 1.477 5.266.168.989.547 1.919.883 2.858.388 2.156 1.118 4.232 1.536 6.385.522-.532 1.007-1.097 1.467-1.681 2.466-3.915 4.515-8.076 6.533-12.236.203-.332.566-.517.856-.764l.72.402c-.101 1.756 0 3.515-.104 5.268.027 1.321-.289 2.645-.045 3.957.111.677.074 1.366.161 2.046.537.869 1.4 1.466 1.996 2.288.836 1.147 2.001 1.971 2.959 3 1.019.982 1.808 2.171 2.766 3.21 1.155 1.099 1.882 2.551 2.887 3.78 2.669 2.99 5.16 6.14 7.782 9.176.544.572.9 1.284 1.187 2.016.675-.375 1.534-.734 1.845-1.481-.977-1.659-2.36-3.02-3.74-4.332-1.135-1.426-2.38-2.773-3.312-4.349-1.492-1.596-2.689-3.44-4.116-5.094-.814-1.174-2.009-1.986-2.877-3.11-1.603-2.028-3.53-3.755-5.182-5.736-.463-1.404-.176-2.9-.411-4.342-.411-2.83.208-5.716-.297-8.531-.089-1.022-.074-2.048-.126-3.073-1.276 1.254-2.323 2.715-3.29 4.217-.651 1.279-1.524 2.426-2.162 3.712-.626 1.294-1.561 2.396-2.296 3.625-.475.912-1.61.989-2.508.939-.294-.557-.665-1.074-.918-1.651-.346-1.009-.43-2.086-.72-3.113-.809-2.456-1.19-5.056-2.367-7.377l-.411-1.212c-1.294.615-2.241 1.724-3.404 2.531-1.101.607-2.338.944-3.347 1.724-.591.007-1.182.012-1.771.06-.45-.842-.985-1.649-1.769-2.211-1.249-.902-1.84-2.461-3.085-3.352l.092-.2c-.059-.782-1.069-.002-.299.21zm84.084 38.636c-1.882.05-3.567.994-5.395 1.324-1.484.32-2.736 1.277-4.247 1.499-1.489.642-3.067 1.104-4.448 1.978-.752.5-1.724.702-2.234 1.511-2.503 1.257-5.232 2.026-7.612 3.535-3.599 1.761-7.142 3.655-10.578 5.721-2.481 1.259-4.893 2.643-7.354 3.932-.111.452-.225.904-.346 1.356-.51.027-1.093-.172-1.534.175-1.549.972-2.847 2.278-4.223 3.475-1.882 2.266-4.143 4.159-6.306 6.143-1.128 1.197-2.345 2.298-3.508 3.457-1.487 1.739-2.884 3.567-3.951 5.608-.136.145-.245.317-.366.477 1.321-.402 2.59-1.047 3.993-1.097 1.066-.022 2.118-.242 3.184-.267 1.897.102 3.758-.41 5.66-.285 1.519-.145 2.991.277 4.492.375 2.914.959 5.895 1.809 8.571 3.36 2.652 1.159 5.264 2.561 7.322 4.641 2.155 1.814 4.364 3.607 6.08 5.866.883 1.404 1.858 2.748 2.721 4.164 1.821-2.016 4.378-3.198 6.061-5.366.626-.909 1.687-1.292 2.508-1.973 1.296-1.167 2.855-1.966 4.299-2.92 1.638-.854 3.335-1.594 4.965-2.466 1.002-.547 2.157-.672 3.181-1.162 1.019-.5 2.251-.587 3.008-1.534 1.87-.455 3.508-1.524 5.271-2.256 1.071-.405 2.152-.792 3.201-1.252 1.306-.582 2.776-.947 3.79-2.026 2.637-.779 5.056-2.116 7.671-2.955.957-.385 1.848-.949 2.872-1.152 1.079-.212 2.093-.719 3.201-.769 1.67.04 3.265-.595 4.942-.525 1.605.067 3.109-.934 4.712-.515 1.091.19 1.816 1.192 2.85 1.549 1.905.662 3.817 1.341 5.593 2.313 1.069.57 2.231.997 3.181 1.766 1.502 1.526 3.424 2.536 4.965 4.017 1.353 1.459 2.902 2.735 4.087 4.349.477.667.945 1.341 1.39 2.033.95 1.539 2.254 2.823 3.114 4.424 1.056 1.529 1.571 3.33 2.162 5.074.66 2.013 1.467 4.002 1.759 6.118.378 1.586 1.158 3.073 1.259 4.729.757 1.394.512 3.028.893 4.522.289 1.199.472 2.426.599 3.655l.336.01c.049-1.067.208-2.123.284-3.188.059-1.669-.245-3.32-.421-4.971.007-1.636-.007-3.285-.267-4.904-.225-.927-.48-1.849-.631-2.79-1.506-4.724-2.392-9.698-4.69-14.134-1.234-3.327-2.093-6.85-3.98-9.885-1.489-1.921-2.345-4.242-3.842-6.155-.757-.984-1.887-1.566-2.699-2.496-1.207-1.119-2.142-2.503-3.426-3.54-1.62-1.661-3.043-3.505-4.616-5.211-.631-.984-1.67-1.561-2.454-2.401-.606-.632-1.333-1.122-1.996-1.689-1.865-1.881-3.968-3.532-6.221-4.909-1.455-.55-2.647-1.566-4.017-2.273-1.766-1.004-3.438-2.163-5.215-3.148-1.361-.684-2.82-1.129-4.188-1.799-1.442-.332-2.944-.532-4.425-.397.458.482 1.123.617 1.699.902.769.35 1.385.982 2.184 1.269 1.497 1.371 3.481 2.058 4.905 3.525 2.296 2.018 4.205 4.422 6.417 6.528 2.664 3.045 5.234 6.22 7.139 9.818.848 1.876 1.751 3.725 2.639 5.578.636 1.037.413 2.306.445 3.465l-.658.175c-.967-2.863-2.427-5.506-3.772-8.196-1.457-2.611-3.09-5.129-4.985-7.439-1.222-1.579-2.34-3.265-3.839-4.596-1.017-.904-1.833-2.006-2.788-2.963-1.724-1.237-3.241-2.785-5.138-3.76-1.012-.552-2.038-1.084-2.973-1.764-1.39-.757-2.887-1.316-4.435-1.639-1.529-.47-3.053-.964-4.616-1.294-.967-.287-1.962-.47-2.926-.769-1.259-.427-2.565.125-3.849-.042-1.489.082-2.949.425-4.44.455zm-33.323 2.318c-1.598 1.172-3.194 2.368-4.997 3.2.151.325.312.697.71.764l-.213.105c.831.812 1.544 1.736 1.905 2.86 1.474-.902 2.949-1.829 4.275-2.95.391-.342.846-.602 1.323-.802-.643-.752-.945-1.739-1.652-2.441-.161-.32-.309-.642-.448-.969-.322-.022-.658-.007-.903.232zm5.229 3.627c-.853.819-1.964 1.277-2.884 2.006-1.202 1.004-2.602 1.711-3.899 2.573-1.467.717-2.691 1.859-4.218 2.463-.606.3-1.304.572-1.652 1.197-.537.949-.366 2.071-.5 3.11 2.016-1.059 4.027-2.141 6.093-3.105 1.398-.435 2.372-1.626 3.693-2.218 1.014-.457 1.929-1.112 2.959-1.536.71-.305 1.175-.949 1.761-1.426 1.393-.877 2.84-1.661 4.302-2.418l.106.07c.604-.24 1.229-.42 1.858-.575 1.153-.475 2.298-.967 3.448-1.449.275.39.799-.33.304-.42-1.076.297-2.204.28-3.307.322-1.65-.215-3.3-.505-4.97-.412-.945.749-1.991 1.346-3.095 1.819zm140.421 4.771c-.829.375-1.774.689-2.283 1.506-.792.942-.915 2.213-.868 3.397l-.24 1.279c.599.032 1.314-.24 1.806.245l.569.072c.317.272.636.537.97.794l-.463 1.541-.148-.365-.153.659c.938.407 2.004.492 3.018.56 1.462-.625 3.038-1.277 4.015-2.616.945-.962 1.168-2.328 1.531-3.572l-.289-.455c-.111-.325-.237-.657-.48-.902-.621-1.237-1.756-2.101-2.991-2.643-1.365-.335-2.664.31-3.993.497zm-3.683 7.837c-1.727.822-3.552 1.384-5.284 2.188l-.005.017c-.888.155-1.558.789-2.365 1.134-2.192.972-4.242 2.246-6.456 3.163-1.793.884-3.335 2.216-5.19 2.983-1.534.942-3.211 1.594-4.799 2.421l-.48-.105c.406.854 1.133 1.486 1.62 2.288.584.999 1.16 2.013 1.539 3.118.077.34.193.669.309 1.002 1.87-1.399 3.594-3.04 5.682-4.132 2.189-1.189 3.869-3.138 6.093-4.269 2.286-1.444 4.665-2.87 6.362-5.036 1.299-.819 2.523-1.804 3.483-3.02.458-.59 1.123-1.114 1.135-1.929-.554-.022-1.138-.077-1.645.177zm-49.727 3.32c-.139.252-.289.497-.453.734-.848.2-1.714.312-2.555.552-.186.13-.586.185-.374.485 1.15 1.336 2.558 2.408 3.802 3.647.648.769 1.244 1.586 1.868 2.381.01.372.032.747.054 1.122.928 1.112 1.593 2.411 2.397 3.612 1.034 1.646 1.39 3.595 2.192 5.348.836 1.841 1.336 3.812 2.078 5.688 1.318 2.511 1.697 5.371 2.741 7.991.787 1.816.972 3.822 1.729 5.653.146 1.496.908 2.865.876 4.389.186 1.834-.126 3.69.195 5.513.23 1.239.067 2.498.139 3.75.844-.787 1.692-1.566 2.654-2.206 1.895-2.203 3.911-4.387 5.135-7.067.49-1.184 1.615-2.021 1.828-3.33.346-.794.648-1.609.952-2.421l-.898-.477c-.072-.487-.188-1.099.423-1.277.252-3.095-.072-6.218-.994-9.181-.366-2.153-1.064-4.232-1.915-6.235-.965-2.221-1.9-4.459-3.082-6.57-1.274-1.739-2.194-3.737-3.691-5.306-1.175-1.099-2.033-2.578-3.523-3.3-.646-.832-1.343-1.789-2.424-2.031-1.823-.527-3.631-1.117-5.462-1.606-1.229-.127-2.481-.12-3.693.14zm13.202 2.366c-.114.3.002.437.349.415.463.355.858.787 1.192 1.269l.012.002c1.868 1.919 3.634 3.979 4.952 6.333.594 1.142 1.459 2.121 1.934 3.332 1.467 3.273 3.055 6.555 3.683 10.125.262 1.566.717 3.09 1.046 4.644.304 1.374.21 2.788.242 4.184.695-1.489 1.083-3.1 1.756-4.599.51-1.521.779-3.13.46-4.721.344-1.886-.007-3.792-.604-5.588l-.119-.015c-.082-.572-.146-1.159-.403-1.679-.609-1.139-1.034-2.366-1.769-3.437-.891-1.841-2.362-3.282-3.829-4.656-.529-.515-1.032-1.169-1.816-1.254-1.069-.857-2.157-1.701-3.325-2.413l-.057-.107-.287-.017.215.01c-.997-.527-1.994-1.062-3.025-1.511-.089-.347-.292-.455-.611-.315zm-35.77 7.869c-1.845.472-3.777.097-5.628.552-2.266.202-4.416.997-6.533 1.784-2.167 1.147-4.515 1.861-6.83 2.63-1.066.515-2.09 1.119-3.228 1.471-2.649 1.476-5.613 2.233-8.307 3.62-1.608.877-3.297 1.589-4.933 2.413-3.594 1.292-6.936 3.193-10.11 5.311-.893.56-1.685 1.381-2.783 1.491-.401.402-.784.824-1.143 1.267-1.771 2.153-4.119 3.707-5.927 5.823-.158.167-.272.362-.341.582-.871 2.845-1.323 5.788-1.828 8.716-.658 3.013-.841 6.143-.366 9.198.742-1.354 2.157-2.063 3.169-3.17.908-.994 2.016-1.769 2.973-2.71.947-.917 2.122-1.526 3.179-2.293 2.31-1.676 4.913-2.865 7.332-4.362 1.835-1.144 3.735-2.178 5.553-3.347.636-.41 1.311-.749 1.999-1.057 1.316-.585 2.461-1.484 3.753-2.116 2.521-1.242 4.883-2.783 7.379-4.067 2.093-.724 3.926-2.011 5.912-2.963 1.843-.465 3.401-1.766 5.331-1.916 4.515-.58 9.091-.704 13.623-.237 1.106.132 2.13.607 3.218.827 5.059 1.107 9.895 3.33 13.942 6.6.915.65 1.875 1.239 2.689 2.023 1.665 1.294 3.421 2.576 4.594 4.372.584.894 1.489 1.541 1.929 2.536l.468.27c.653 1.064 1.672 1.871 2.147 3.05.453 1.102 1.113 2.113 1.989 2.92-.139-1.409-.777-2.705-.895-4.117-.146-1.954-1.061-3.717-1.544-5.588-.542-2.096-1.086-4.209-1.991-6.18-.5-1.112-.799-2.303-1.38-3.377-.75-1.501-1.892-2.74-2.84-4.109-.876-1.284-1.796-2.538-2.647-3.837-.47-.684-.876-1.441-1.544-1.954-1.38-1.097-2.724-2.251-3.923-3.55-.539-.57-1.076-1.174-1.801-1.499-1.677-.797-2.889-2.338-4.633-3.013-1.405-.709-2.988-.954-4.351-1.759-1.828-.53-3.807-.722-5.672-.235zm-88.477 7.946c-1.868.117-3.743.202-5.598.437l.294.012c-1.333.242-2.627.669-3.951.954-.594.23-1.427.237-1.734.899-.537 1.184-1.034 2.391-1.442 3.625-.91 3.26-1.118 6.652-1.563 9.995-.153 2.923.544 5.788.876 8.673.19 1.936 1.217 3.645 1.504 5.558.094 2.276 1.079 4.402 1.148 6.685.552-.217 1.133-.322 1.727-.325.299-.11.601-.22.905-.32l.032-.115c2.644-.325 5.318-.824 7.983-.445 1.714.267 3.481-.04 5.173.4 1.202.302 2.459.257 3.654.59 2.256.809 4.129 2.433 6.407 3.223 2.78 1.371 5.323 3.178 7.745 5.111 1.524 1.366 2.808 2.983 4.366 4.312 1.457 1.446 2.362 3.335 3.532 5.009-.032-1.149-.411-2.248-.505-3.387-.275-2.678-.826-5.313-1.2-7.976-.178-1.114.012-2.278-.317-3.365.094-1.826-.272-3.632-.245-5.456-.02-2.016.176-4.017.299-6.025.275-2.158 1.041-4.227 1.205-6.4.146-1.092.613-2.138.497-3.26.054-.729-.529-1.249-.821-1.856-1.937-3.64-5.123-6.323-8.136-9.016-1.202-1.354-2.842-2.143-4.329-3.113-1.784-1.024-3.772-1.584-5.667-2.346-1.447-.595-3.02-.794-4.46-1.414-2.335-.964-4.913-.954-7.379-.664zm-7.431 37.501l.092.112c-.915.177-1.816.425-2.709.684l-.057.632c-2.323 2.013-4.228 4.467-5.986 6.982-.848 1.047-1.291 2.383-2.286 3.315-.601 1.676-1.944 2.945-2.701 4.547 1.153-.067 2.318-.37 3.466-.112l.767.085c1.598.227 3.231.33 4.764.877 1.487.6 3.092.902 4.482 1.736 2.221 1.396 4.589 2.743 6.189 4.894.945 1.114 1.994 2.138 2.887 3.295 1.267 1.934 2.395 3.957 3.372 6.055.777 1.334 1.111 2.853 1.561 4.317.25 1.157.334 2.348.754 3.465.116 1.379.322 2.753.346 4.144-.366.922-.198 1.954-.378 2.918-.364 2.146-.994 4.237-1.704 6.288 2.733-.33 5.464-.707 8.218-.842 2.182-.407 4.408-.42 6.602-.742 1.212-.162 2.377-.56 3.565-.854 1.546-.475 3.156-.934 4.433-1.991.777-.09 1.615-.102 2.293-.547.497-.477.915-1.034 1.405-1.516.252-1.277.475-2.563.544-3.862.111-2.341.816-4.626.698-6.982.002-2.096-.119-4.199.21-6.278-.111-2.481-.339-5.081-1.526-7.307-.411-1.194-.841-2.383-1.336-3.542-.91-1.681-1.613-3.487-2.803-5.001-1.113-1.829-2.934-3.008-4.297-4.616-1.551-1.624-3.285-3.083-5.175-4.289-2.192-1.591-4.779-2.481-7.077-3.895-1.459-.899-3.038-1.724-4.769-1.874-1.999-.092-3.965-.532-5.964-.607-1.563-.002-3.132-.082-4.69.047-1.069.13-2.115.407-3.189.465zm-14.417 17.599l-.24.565-.28.709c-.586 1.554-1.234 3.105-1.472 4.764-.045 1.164-.067 2.338.04 3.502.195 1.649.195 3.315.468 4.956.015.352.252.714.579.382.497-.387.814-1.529 1.596-1.099.868.689 2.014.16 2.968.575 2.078.822 4.079 1.934 5.729 3.465.846 1.137 1.445 2.473 1.875 3.825.186 1.356.361 2.768-.099 4.094-.181.822-1.024 1.174-1.591 1.691-.972.837-2.216 1.207-3.33 1.796 1.492 1.334 3.379 2.048 5.2 2.785 2.585.729 5.054 1.806 7.481 2.955 1.645.809 3.478 1.132 5.291 1.264.769-.63 1.6-1.262 1.974-2.226.824-1.966 1.168-4.102 1.346-6.218.094-1.267.505-2.578-.017-3.81-.48-2.486-1.051-4.959-1.942-7.329-.994-1.941-1.91-3.935-3.164-5.721-.703-.794-1.348-1.636-2.08-2.403-.779-.814-1.336-1.831-2.221-2.543-1.314-1.084-2.555-2.288-4.082-3.073-1.192-.722-2.528-1.132-3.805-1.666-2.13-.882-4.423-1.344-6.721-1.441-1.163.145-2.37-.162-3.503.2zm56.45 9.545c.23 1.816.542 3.645.354 5.483.012 2.798.002 5.603-.317 8.389-.569 2.546-.49 5.184-1.017 7.742 1.398.45 2.87.002 4.289-.092 1.984-.255 4.495-.45 5.452-2.551.062-1.217-.505-2.341-.868-3.467-.331-.947-.339-2.008-.881-2.873-1.296-2.201-2.39-4.527-3.817-6.645-.747-1.192-1.341-2.473-2.024-3.7-.423-.747-.581-1.644-1.173-2.286zm-56.529 6.872c-.757.734-1.526 1.459-2.39 2.071l-.01.095c-1.408.727-2.59 1.814-3.706 2.928-1.398 1.164-2.731 2.406-4.141 3.557-1.506 1.481-2.986 2.988-4.621 4.327-1.764 2.076-3.654 4.042-5.578 5.968-.972.617-1.709 1.526-2.615 2.233-1.069.827-2.09 1.714-3.092 2.623-.69.642-1.576 1.059-2.157 1.821-.322.407-.633.822-.96 1.227.237.297.475.6.705.907l.477-.42.188-.31.153.252c4.732-1.531 9.024-4.122 13.613-6.015l4.403-2.096c2.57-1.039 4.67-3.018 7.337-3.83.945-.317 1.821-.804 2.701-1.267 1.138-.612 2.348-1.082 3.453-1.754 1.821-.999 3.785-1.759 5.484-2.968 1.227-1.277.468-3.173.233-4.689l-.126.052c-.48-1.017-.97-2.103-1.952-2.725-1.531-1.037-3.152-2.046-4.977-2.431-.819-.11-1.786-.205-2.424.442zm-38.296 27.829c-1.022.49-1.744 1.396-2.632 2.076-2.147 1.739-3.76 4.319-3.861 7.15.087.872.455 1.674.98 2.368 1.247 1.709 3.577 2.081 5.531 1.749 1.519-.277 2.627-1.431 3.918-2.183.591-.377 1.244-.702 1.692-1.259 1.6-2.233 2.954-4.766 3.211-7.552-.119-.24-.257-.465-.413-.677-.21-.547-.601-.992-.992-1.411-.223-.437-.416-.887-.606-1.336-2.298.002-4.73-.01-6.827 1.077z" id="Shape"/><path d="M123.438 65.46c1.237-.045 2.476-.125 3.703-.302 1.699.442 3.473.37 5.177.799 2.021.137 4.005.542 5.986.944 2.041 1.252 4.485 1.978 6.043 3.915 1.895 1.751 3.06 4.274 3.117 6.867-.425 1.606-1.378 3.467-3.144 3.812-2.652.647-5.118 1.864-7.733 2.628-2.964.964-5.635 2.576-8.23 4.279-1.67 1.004-3.434 1.844-5.049 2.943-1.425.982-2.961 1.781-4.445 2.665-1.207.859-2.335 1.826-3.498 2.745-2.276 1.609-4.801 2.795-7.189 4.219-1.145.255-2.194.839-3.367.977-2.464.272-5.257.362-7.28-1.329-1.111-.677-1.516-1.973-2.273-2.965-.841-1.059-.856-2.458-1.064-3.735-.178-1.089-.027-2.188.131-3.268.143-2.018 1.163-3.817 2.058-5.578.873-1.954 2.343-3.62 2.773-5.768 1.13-1.272 1.868-2.848 3.045-4.084.989-1.007 1.675-2.276 2.761-3.193 2.105-2.471 5.311-3.405 8.136-4.754 2.293-.792 4.73-1.067 7.129-1.324 1.083-.092 2.12-.497 3.211-.495zm-3.723 1.914c-2.899.437-5.84.962-8.505 2.246-1.18.712-2.429 1.307-3.572 2.078-1.539 1.194-2.637 2.843-3.98 4.234-1.036 1.217-1.989 2.503-3.02 3.725-1.13 1.299-1.412 3.118-2.588 4.384-.66 1.282-1.074 2.69-1.591 4.039-.346 1.526-1.076 2.988-.913 4.594-.094 2.148 1.022 4.052 2.118 5.798 1.034 1.282 2.664 1.811 4.242 1.964.989-.18 2.006-.025 2.993-.23 2.036-.367 3.827-1.486 5.556-2.571 2.132-1.124 4.168-2.446 6.061-3.949 1.202-.797 2.315-1.739 3.636-2.338 2.098-1.524 4.416-2.69 6.627-4.029 1.858-.962 3.547-2.228 5.514-2.973 1.556-.962 3.332-1.406 4.947-2.246 1.034-.495 2.204-.61 3.228-1.137 1.158-.562 2.471-.647 3.639-1.174 1.264-.752 1.749-2.421 1.408-3.812-.099-1.409-1.044-2.498-1.714-3.667-1.863-1.991-4.331-3.29-6.874-4.172-2.32-.6-4.715-.772-7.067-1.194-1.712-.317-3.456-.087-5.18-.17-1.685-.075-3.28.664-4.965.6z" id="Shape"/><path d="M113.163 72.138c.267-.43.532-1.034 1.153-.834.754.625 1.479 1.297 2.353 1.759 1.509.922 2.919 2.026 4.151 3.302l.408-.015c.297-.774.475-1.584.698-2.381.245-.659 1.022-.387 1.546-.385l.23.555c.002 1.629 1.291 2.745 1.991 4.089 1.425-.789 1.929-2.483 2.699-3.825.537-.877.235-2.218 1.173-2.823.584-.067.933.5 1.237.907.762 1.132 1.751 2.078 2.558 3.178.393-.435.92-.832.994-1.459.148-.52.035-1.159.448-1.566.663-.235 1.323.14 1.949.325 1.553.612 3.174 1.072 4.618 1.936.591.397 1.326.402 1.962.684.24.345.203.792.282 1.192-1.412.655-2.602-.61-3.861-1.077-1.237-.432-2.412-1.024-3.666-1.404-.512 1.077-1.368 1.919-2.043 2.888-.267.405-.715.699-1.212.6-.297-.487-.492-1.027-.801-1.501-.579-.934-1.469-1.594-2.246-2.343-.519 1.194-.975 2.416-1.492 3.612-.438 1.112-1.516 1.799-1.902 2.945-.522.172-1.076.337-1.549-.047-.237-1.521-.982-2.973-2.137-3.989-.141.692-.287 1.384-.396 2.083-.378.175-.804.472-1.227.25l-1.741-1.961c-1.076-.949-2.286-1.739-3.54-2.423.512 2.048 1.155 4.202.71 6.32.156 1.189.48 2.346.698 3.522.151.672-.673.927-1.182.769-.886-.21-1.796-.135-2.686-.25-.74-.295-1.469-.632-2.261-.762.027.732.569 1.252.844 1.891.247.707.257 1.466.44 2.191.054.367.195.772-.002 1.122-.435.28-.997.435-1.482.192-1.202-.475-2.486-.622-3.743-.864.653 1.102 1.591 1.996 2.239 3.098.396.542-.173 1.316-.789 1.244-1.643-.137-3.29.015-4.933-.127-.312 1.571-1.056 3.003-1.356 4.579-.48-.092-1.113.147-1.462-.3-.544-.487.084-1.189.22-1.741.562-1.127.579-2.421 1.041-3.57 1.262-1.371 3.216-.187 4.784-.437-.383-1.224-1.467-1.931-2.204-2.893-.468-.64.124-1.204.601-1.579 1.811.335 3.73.267 5.442 1.037-.126-1.591-1.17-2.875-1.549-4.392.366-.29.715-.61 1.118-.847.688-.17 1.343.155 1.974.387 1.007.4 2.098.485 3.169.545-.522-2.091-.119-4.254-.433-6.358-.611-1.681-1.153-3.392-1.833-5.049z" id="Shape"/><path d="M184.336 82.757c.764-1.102 2.706-1.107 3.231.237.801-.037 1.732-.167 2.301.557.801 1.476 2.118 2.848 2.026 4.651.067.852-.621 1.489-1.239 1.951-.942.63-2.12 1.174-3.263.819-1.408-.477-2.231-1.851-2.86-3.118-.801-1.566-.834-3.467-.195-5.099zm1.361 1.416c-.339 1.876.329 4.052 2.051 5.016.542.385 1.19-.012 1.722-.21-1.091-1.719-2.127-3.555-3.772-4.806zm1.531.03c1.019.952 1.878 2.063 2.944 2.96-.378-.814-.819-1.606-1.368-2.313-.359-.512-1.029-.527-1.576-.647z" id="Shape"/><path d="M191.711 95.135c1.007-.547 2.36-.407 3.008.625 1.116.267 2.043 1.034 2.625 2.021.831 1.504 1.699 3.01 2.132 4.694-.502 1.184-1.455 2.063-2.434 2.843-1.153.042-2.558.115-3.347-.907-1.004-1.321-2.061-2.728-2.293-4.424-.319-1.162-.45-2.361-.255-3.557.2-.425.383-.859.564-1.294zm1.022 1.759c-.594 2.108.455 4.172 1.605 5.868.512.597 1.306.812 2.006 1.097-.054-2.378-1.348-4.424-2.639-6.315l.762-.017c.534.677 1.123 1.312 1.702 1.956.759.879.876 2.131 1.667 2.983-.289-1.164-1.076-2.101-1.558-3.18-.651-1.369-1.865-2.318-3.142-3.05-.158.205-.289.427-.403.659z" id="Shape"/><path d="M197.741 110.049c1.588-.135 2.909.957 4.104 1.864.935.727.512 1.993.762 2.995.101 1.224.176 2.745-.895 3.585-.905.652-1.897 1.404-3.075 1.307-1.556.202-2.573-1.361-2.904-2.695-.72-1.874-.396-4.027.594-5.736.366-.522.792-1.109 1.415-1.319zm1.761 2.088c.275.859.72 1.656.957 2.528.116.809.059 1.634.064 2.451l.383-.18c.569-1.664.438-4.032-1.405-4.799zm-1.346 6.285c.322-.37.809-.687.856-1.224.416-1.731-.223-3.507-1.244-4.894-1.509 1.724-1.323 4.592.388 6.118z" id="Shape"/><path d="M59.673 138.812c1.687-.287 3.471-.525 5.138-.002 1.229.522 2.625.959 3.461 2.083.46.922.67 1.978.646 3.01.022.962-.557 1.781-.977 2.601-.376.774-1.215 1.079-1.89 1.516-2.08.432-4.247-.132-6.058-1.199-1.177-.542-2.169-1.404-2.973-2.421l.032-.615-.515-.282c.376-.919.052-1.951.468-2.853.809-.729 1.717-1.321 2.669-1.839zm1.469 1.074c-1.291.497-2.696 1.089-3.476 2.311.277.24.554.485.841.719.67-.874 1.591-1.496 2.447-2.168.747-.6 1.746-.507 2.639-.625-.806-.13-1.64-.587-2.451-.237zm-1.479 4.524c.428.602 1.14.882 1.774 1.202 1.061.49 2.192.977 3.384.877 1.009-.05 1.912-.837 2.127-1.834.398-.864.366-1.931-.351-2.613-1.459-.207-2.981-.55-4.43-.185-.928.734-1.952 1.471-2.503 2.553z" id="Shape"/><path d="M75.805 150.323c2.595-1.791 6.165-1.234 8.688.417 1.343.892 2.268 2.248 3.201 3.535.866 1.259.747 2.868.717 4.322-.522 1.334-.992 2.805-2.214 3.665-.814.729-1.967.974-3.008.662-1.254-.44-2.548-.872-3.589-1.731-1.019-.809-1.539-2.096-2.615-2.84-.134-.27-.223-.57-.47-.749-1.148-.922-1.714-2.338-2.142-3.707-.109-1.354.272-2.778 1.432-3.572zm.319 2.306c1.447-.467 2.954-.6 4.45-.789 1.838.407 3.711 1.094 5.059 2.478-.695-.864-1.365-1.786-2.31-2.391-1.566-1.032-3.53-1.474-5.373-1.124-.784.392-1.435 1.032-1.826 1.826zm.893 1.351c-1.098.532-.119 1.841.443 2.436l.087.565c.693.242 1.323.647 1.722 1.284 1.163 1.659 3.006 2.888 5.039 3.028 1.556-.467 2.204-2.353 2.202-3.847-1.687-1.639-3.387-3.637-5.855-3.954-1.212-.045-2.538-.115-3.636.49z" id="Shape"/><path d="M87.357 173.4c1.242-1.009 2.83-1.664 4.44-1.579 1.14.295 2.469.684 2.978 1.881 1.92 3.5.51 8.526-3.033 10.382-1.138.709-2.55.869-3.852.64-1.363-.337-2.404-1.586-2.654-2.958-.198-1.067.062-2.143.327-3.173.396-1.781.416-3.822 1.793-5.194zm3.248.045c1.356 2.431 1.593 5.249 1.853 7.971 1.017-1.094 1.603-2.556 1.586-4.059-.062-1.289-.297-2.703-1.323-3.585-.7-.15-1.4-.305-2.115-.327zm-3.006 2.94c-.329 1.042-.235 2.163-.599 3.195-.69 1.459.566 3.645 2.254 3.432.435-.49.903-.949 1.393-1.379.168-2.591-.198-5.323-1.596-7.552-.663.63-1.254 1.386-1.452 2.303z" id="Shape"/></g><g stroke="#F8B059" stroke-width=".094" fill="#F8B059" sketch:type="MSShapeGroup"><path d="M24.215 5.266c.529-1.689 2.026-3.005 3.73-3.377 1.873-.357 3.711.425 5.351 1.259 2.011 1.401 4.077 3.093 4.787 5.568l.04.247c-2.155.525-3.978-1.044-5.878-1.751-1.294-.225-2.501-.772-3.78-1.039-1.378.147-2.61.959-4.025.957-.089-.615-.361-1.239-.225-1.864z" id="Shape"/><path d="M233.034 68.9c1.328-.187 2.627-.832 3.993-.497 1.234.542 2.37 1.406 2.991 2.643-1.108-.472-2.345-.949-3.552-.6-1.19.347-2.516.597-3.411 1.536-.591.57-1.056 1.274-1.732 1.749-.455.175-.967.05-1.44.072-.047-1.184.077-2.456.868-3.397.51-.817 1.455-1.132 2.283-1.506z" id="Shape"/><path d="M221.697 80.076c.806-.345 1.477-.979 2.365-1.134-.267 1.237-1.064 2.378-2.263 2.84-1.645.642-3.268 1.346-4.851 2.131-1.408.687-2.456 1.929-3.869 2.608-.992.48-2.08.702-3.08 1.164-.844.36-1.618.887-2.508 1.129-.747.195-1.509-.015-2.239-.172 1.588-.827 3.265-1.479 4.799-2.421 1.855-.767 3.396-2.098 5.19-2.983 2.214-.917 4.265-2.191 6.456-3.163z" id="Shape"/><path d="M193.175 82.837l.262-.1c1.032.45 2.028.984 3.025 1.511l-.215-.01c-.623-.032-1.247-.082-1.868-.13l-.012-.002c-.334-.482-.73-.914-1.192-1.269z" id="Shape"/><path d="M196.591 84.363c1.168.712 2.256 1.556 3.325 2.413-1.447-.127-2.81-1.002-3.325-2.413z" id="Shape"/><path d="M46.491 153.903l.24-.565c.816.055 1.63-.03 2.442-.107-.383 1.262-.893 2.478-1.403 3.692-.67 1.591-.767 3.34-1.254 4.986-.267.882-.354 1.804-.356 2.723.025 1.142-.566 2.151-.913 3.203-.272-1.641-.272-3.307-.468-4.956-.106-1.164-.084-2.338-.04-3.502.237-1.659.886-3.21 1.472-4.764l.28-.709z" id="Shape"/><path d="M40.547 174.849c1.116-1.114 2.298-2.201 3.706-2.928-.099.784-.143 1.631-.609 2.303-.581.819-1.494 1.309-2.118 2.091-.628.782-1.222 1.606-2.009 2.241-.908.742-1.887 1.396-2.711 2.241-1.086 1.102-2.474 1.821-3.636 2.83-.67.577-1.346 1.157-2.118 1.599-1.764.947-3.03 2.603-4.846 3.475 1.925-1.926 3.814-3.892 5.578-5.968 1.635-1.339 3.114-2.845 4.621-4.327 1.41-1.152 2.743-2.393 4.141-3.557z" id="Shape"/><path d="M8.356 197.584c2.098-1.087 4.529-1.074 6.827-1.077.19.45.383.899.606 1.336-.898.555-1.91.904-2.971.917-1.534.085-2.882.889-4.26 1.491-.811.385-1.714.699-2.306 1.416-.633.797-.982 1.791-1.675 2.546-.853.917-1.727 1.826-2.716 2.596.101-2.83 1.714-5.411 3.861-7.15.888-.679 1.61-1.586 2.632-2.076z" id="Shape"/></g><g stroke="#F6941E" stroke-width=".094" fill="#F6941E" sketch:type="MSShapeGroup"><path d="M24.44 7.13c1.415.002 2.647-.809 4.025-.957 1.279.267 2.486.814 3.78 1.039 1.9.707 3.723 2.276 5.878 1.751l.304 2.246c-1.417 1.072-2.595 2.845-4.532 2.878-1.385.067-2.827.055-4.126-.505-1.049-.435-2.1-.877-3.102-1.419-1.338-1.331-1.675-3.295-2.226-5.034z" id="Shape"/><path d="M119.716 67.374c1.685.065 3.28-.674 4.965-.6 1.724.082 3.468-.147 5.18.17 2.353.422 4.747.595 7.067 1.194 2.543.882 5.012 2.181 6.874 4.172.67 1.169 1.615 2.258 1.714 3.667.341 1.391-.143 3.06-1.408 3.812-1.168.527-2.481.612-3.639 1.174-1.024.527-2.194.642-3.228 1.137-1.615.839-3.391 1.284-4.947 2.246-1.967.744-3.656 2.011-5.514 2.973-2.212 1.339-4.529 2.506-6.627 4.029-1.321.6-2.434 1.541-3.636 2.338-1.892 1.504-3.928 2.825-6.061 3.949-1.729 1.084-3.52 2.203-5.556 2.571-.987.205-2.004.05-2.993.23-1.578-.152-3.208-.682-4.242-1.964-1.096-1.746-2.212-3.65-2.118-5.798-.163-1.606.566-3.068.913-4.594.517-1.349.93-2.758 1.591-4.039 1.175-1.267 1.457-3.085 2.588-4.384 1.032-1.222 1.984-2.508 3.02-3.725 1.343-1.391 2.442-3.04 3.98-4.234 1.143-.772 2.392-1.366 3.572-2.078 2.664-1.284 5.605-1.809 8.505-2.246zm-6.553 4.764c.68 1.656 1.222 3.367 1.833 5.049.314 2.103-.089 4.267.433 6.358-1.071-.06-2.162-.145-3.169-.545-.631-.232-1.286-.557-1.974-.387-.403.237-.752.557-1.118.847.378 1.516 1.422 2.8 1.549 4.392-1.712-.769-3.631-.702-5.442-1.037-.477.375-1.069.939-.601 1.579.737.962 1.821 1.669 2.204 2.893-1.568.25-3.523-.934-4.784.437-.463 1.149-.48 2.443-1.041 3.57-.136.552-.764 1.254-.22 1.741.349.447.982.207 1.462.3.299-1.576 1.044-3.008 1.356-4.579 1.643.142 3.29-.01 4.933.127.616.072 1.185-.702.789-1.244-.648-1.102-1.586-1.996-2.239-3.098 1.257.242 2.541.39 3.743.864.485.242 1.046.087 1.482-.192.198-.35.057-.754.002-1.122-.183-.724-.193-1.484-.44-2.191-.275-.64-.816-1.159-.844-1.891.792.13 1.521.467 2.261.762.891.115 1.801.04 2.686.25.51.157 1.333-.097 1.182-.769-.218-1.177-.542-2.333-.698-3.522.445-2.118-.198-4.272-.71-6.32 1.254.684 2.464 1.474 3.54 2.423l1.741 1.961c.423.222.848-.075 1.227-.25.109-.699.255-1.391.396-2.083 1.155 1.017 1.9 2.468 2.137 3.989.472.385 1.027.22 1.549.047.386-1.147 1.464-1.834 1.902-2.945.517-1.197.972-2.418 1.492-3.612.777.749 1.667 1.409 2.246 2.343.309.475.505 1.014.801 1.501.497.1.945-.195 1.212-.6.675-.969 1.531-1.811 2.043-2.888 1.254.38 2.429.972 3.666 1.404 1.259.467 2.449 1.731 3.861 1.077-.079-.4-.042-.847-.282-1.192-.636-.282-1.37-.287-1.962-.684-1.445-.864-3.065-1.324-4.618-1.936-.626-.185-1.286-.56-1.949-.325-.413.407-.299 1.047-.448 1.566-.074.627-.601 1.024-.994 1.459-.806-1.099-1.796-2.046-2.558-3.178-.304-.407-.653-.974-1.237-.907-.938.605-.636 1.946-1.173 2.823-.769 1.341-1.274 3.035-2.699 3.825-.7-1.344-1.989-2.461-1.991-4.089l-.23-.555c-.524-.002-1.301-.275-1.546.385-.223.797-.401 1.606-.698 2.381l-.408.015c-1.232-1.277-2.642-2.381-4.151-3.302-.873-.462-1.598-1.134-2.353-1.759-.621-.2-.886.405-1.153.834z" id="Shape"/><path d="M236.465 70.446c1.207-.35 2.444.127 3.552.6.242.245.369.577.48.902l.087.49c-.811.834-1.6 1.706-2.068 2.793-.762 1.616-2.815 1.269-4.131 2.086-.566.192-1.16.897-1.761.557l-.099-.137c.121-.525.336-1.019.463-1.541-.334-.257-.653-.522-.97-.794l-.569-.072c-.492-.485-1.207-.212-1.806-.245l.24-1.279c.472-.022.985.102 1.44-.072.675-.475 1.14-1.179 1.732-1.749.895-.939 2.221-1.189 3.411-1.536z" id="Shape"/><path d="M229.351 76.737c.507-.255 1.091-.2 1.645-.177-.012.814-.678 1.339-1.135 1.929-.96 1.217-2.184 2.201-3.483 3.02-4.997 1.736-8.839 5.563-13.267 8.319-1.833 1.184-3.874 2.298-4.9 4.344l-.28-.227c-.378-1.104-.955-2.118-1.539-3.118-.487-.802-1.215-1.434-1.62-2.288l.48.105c.73.157 1.492.367 2.239.172.891-.242 1.665-.769 2.508-1.129.999-.462 2.088-.684 3.08-1.164 1.412-.679 2.461-1.921 3.869-2.608 1.583-.784 3.206-1.489 4.851-2.131 1.2-.462 1.996-1.604 2.263-2.84l.005-.017c1.732-.804 3.557-1.366 5.284-2.188z" id="Shape"/><path d="M194.38 84.108c.621.047 1.244.097 1.868.13l.287.017.057.107c.515 1.411 1.878 2.286 3.325 2.413.784.085 1.286.739 1.816 1.254 1.467 1.374 2.939 2.815 3.829 4.656.735 1.072 1.16 2.298 1.769 3.437.257.52.322 1.107.403 1.679l.119.015c.596 1.796.947 3.702.604 5.588.319 1.591.049 3.2-.46 4.721-.673 1.499-1.061 3.11-1.756 4.599-.032-1.396.062-2.81-.242-4.184-.329-1.554-.784-3.078-1.046-4.644-.628-3.57-2.216-6.852-3.683-10.125-.475-1.212-1.341-2.191-1.934-3.332-1.318-2.353-3.085-4.414-4.952-6.333z" id="Shape"/><path d="M46.731 153.338c1.133-.362 2.34-.055 3.503-.2 2.298.097 4.591.56 6.721 1.441 1.276.535 2.612.944 3.805 1.666 1.526.784 2.768 1.988 4.082 3.073.886.712 1.442 1.729 2.221 2.543.732.767 1.378 1.609 2.08 2.403 1.254 1.786 2.169 3.78 3.164 5.721.891 2.371 1.462 4.844 1.942 7.329.104.904.054 1.814-.005 2.718-.92-.052-1.89-.017-2.733-.45-1.051-.54-2.098-1.114-3.258-1.386-1.034-.247-1.979-.744-2.971-1.112-.982-.365-2.051-.257-3.062-.462-.703-.245-1.249-.822-1.974-1.012-.754-.202-1.519-.36-2.251-.63-.43-1.351-1.029-2.688-1.875-3.825-1.65-1.531-3.651-2.643-5.729-3.465-.955-.415-2.1.115-2.968-.575-.782-.43-1.098.712-1.596 1.099-.327.332-.564-.03-.579-.382.346-1.052.938-2.061.913-3.203.002-.919.089-1.841.356-2.723.487-1.646.584-3.395 1.254-4.986.51-1.214 1.019-2.431 1.403-3.692-.811.077-1.625.162-2.442.107z" id="Shape"/><path d="M46.652 169.756c.638-.647 1.605-.552 2.424-.442 1.826.385 3.446 1.394 4.977 2.431.982.622 1.472 1.709 1.952 2.725-1.801.562-3.011 2.073-4.458 3.19-1.39 1.007-2.607 2.233-3.983 3.265-1.759 1.604-3.913 2.645-6.016 3.707-2.113 1.177-4.089 2.606-6.301 3.605-1.274.582-2.325 1.551-3.584 2.161-1.92.967-3.857 1.949-5.934 2.516-1.21.312-2.244 1.052-3.404 1.489-1.326.525-2.81 1.077-3.572 2.381l-.188.31-.477.42c-.23-.307-.468-.61-.705-.907.327-.405.638-.819.96-1.227.581-.762 1.467-1.179 2.157-1.821 1.002-.909 2.024-1.796 3.092-2.623.905-.707 1.643-1.616 2.615-2.233 1.816-.872 3.082-2.528 4.846-3.475.772-.442 1.447-1.022 2.118-1.599 1.163-1.009 2.55-1.729 3.636-2.83.824-.844 1.803-1.499 2.711-2.241.787-.635 1.38-1.459 2.009-2.241.623-.782 1.536-1.272 2.118-2.091.465-.672.51-1.519.609-2.303l.01-.095c.863-.612 1.633-1.336 2.39-2.071z" id="Shape"/><path d="M15.79 197.844c.391.42.782.864.992 1.411l.22.807c-.752.842-1.081 1.939-1.497 2.968-.618 1.529-2.174 2.273-3.283 3.382-.764.829-1.897 1.072-2.83 1.644-.767.45-1.573.869-2.461.997-1.358.3-2.736-.265-4.089.125-.524-.694-.893-1.496-.98-2.368.989-.769 1.863-1.679 2.716-2.596.693-.754 1.041-1.749 1.675-2.546.591-.717 1.494-1.032 2.306-1.416 1.378-.602 2.726-1.406 4.26-1.491 1.061-.012 2.073-.362 2.971-.917z" id="Shape"/></g><g stroke="#7D4B0F" stroke-width=".094" fill="#7D4B0F" sketch:type="MSShapeGroup"><path d="M38.083 8.716l-.042-.287c.46 1.122.51 2.351.668 3.54.171.999-.339 1.949-.95 2.69-.678.422-1.484.555-2.241.769-.49-.397-.999-.892-1.682-.832-.643.337-.502 1.117-.512 1.721-1.264-.115-2.451-.577-3.636-.994-1.464-.477-2.219-1.954-3.02-3.16 1.002.542 2.053.984 3.102 1.419 1.299.56 2.741.572 4.126.505 1.937-.032 3.114-1.806 4.532-2.878l-.304-2.246-.04-.247z" id="Shape"/><path d="M240.497 71.948l.289.455c-.364 1.244-.586 2.611-1.531 3.572-.977 1.339-2.553 1.991-4.015 2.616-1.014-.067-2.08-.152-3.018-.56l.153-.659.148.365.099.137c.601.34 1.195-.365 1.761-.557 1.316-.817 3.369-.47 4.131-2.086.468-1.087 1.257-1.959 2.068-2.793l-.087-.49z" id="Shape"/><path d="M213.111 89.827c4.428-2.755 8.27-6.582 13.267-8.319-1.697 2.166-4.077 3.592-6.362 5.036-2.224 1.132-3.904 3.08-6.093 4.269-2.088 1.092-3.812 2.733-5.682 4.132-.116-.332-.233-.662-.309-1.002l.28.227c1.027-2.046 3.067-3.16 4.9-4.344z" id="Shape"/><path d="M56.005 174.47l.126-.052c.235 1.516.994 3.412-.233 4.689-1.699 1.209-3.664 1.969-5.484 2.968-1.106.672-2.315 1.142-3.453 1.754-.881.462-1.756.949-2.701 1.267-2.667.812-4.767 2.79-7.337 3.83l-4.403 2.096c-4.589 1.894-8.881 4.484-13.613 6.015l-.153-.252c.762-1.304 2.246-1.856 3.572-2.381 1.16-.437 2.194-1.177 3.404-1.489 2.078-.567 4.015-1.549 5.934-2.516 1.259-.61 2.31-1.579 3.584-2.161 2.212-.999 4.188-2.428 6.301-3.605 2.103-1.062 4.257-2.103 6.016-3.707 1.375-1.032 2.592-2.258 3.983-3.265 1.447-1.117 2.657-2.628 4.458-3.19z" id="Shape"/><path d="M57.994 174.982c.732.27 1.497.427 2.251.63.725.19 1.271.767 1.974 1.012 1.012.205 2.08.097 3.062.462.992.367 1.937.864 2.971 1.112 1.16.272 2.207.847 3.258 1.386.844.432 1.813.397 2.733.45.059-.904.109-1.814.005-2.718.522 1.232.111 2.543.017 3.81-.178 2.116-.522 4.252-1.346 6.218-.374.964-1.205 1.596-1.974 2.226-1.813-.132-3.646-.455-5.291-1.264-2.427-1.149-4.895-2.226-7.481-2.955-1.821-.737-3.708-1.451-5.2-2.785 1.113-.59 2.357-.959 3.33-1.796.566-.517 1.41-.869 1.591-1.691.46-1.326.284-2.738.099-4.094z" id="Shape"/><path d="M16.782 199.256c.156.212.294.437.413.677-.257 2.785-1.61 5.318-3.211 7.552-.448.557-1.101.882-1.692 1.259-1.291.752-2.4 1.906-3.918 2.183-1.954.332-4.284-.04-5.531-1.749 1.353-.39 2.731.175 4.089-.125.888-.127 1.694-.547 2.461-.997.933-.572 2.066-.814 2.83-1.644 1.108-1.109 2.664-1.854 3.283-3.382.416-1.029.745-2.126 1.497-2.968l-.22-.807z" id="Shape"/></g><path id="Shape" d="M.26.562c-.769-.212.24-.992.299-.21l-.092.2-.208.01z" transform="translate(36.364 18.986)" stroke="#0C0606" stroke-width=".094" fill="#0C0606" sketch:type="MSShapeGroup" opacity=".81"/><g stroke="#99987D" stroke-width=".094" fill="#99987D" sketch:type="MSShapeGroup"><path d="M36.623 19.548l.208-.01 3.085 3.352c.784.562 1.318 1.369 1.769 2.211.589-.047 1.18-.052 1.771-.06 1.217 0 2.36-.485 3.468-.947 1.306-.55 2.563-1.229 3.693-2.096 1.177 2.321 1.558 4.921 2.367 7.377.289 1.027.374 2.103.72 3.113.252.577.623 1.094.918 1.651.898.05 2.033-.027 2.508-.939.735-1.229 1.67-2.331 2.296-3.625.638-1.287 1.511-2.433 2.162-3.712 1.395.047 2.236-1.237 3.186-2.061l.23.917c.505 2.815-.114 5.701.297 8.531.235 1.441-.052 2.938.411 4.342 1.652 1.981 3.579 3.707 5.182 5.736.868 1.124 2.063 1.936 2.877 3.11 1.427 1.654 2.625 3.497 4.116 5.094.933 1.576 2.177 2.923 3.312 4.349 1.38 1.312 2.763 2.673 3.74 4.332-.312.747-1.17 1.107-1.845 1.481-.287-.732-.643-1.444-1.187-2.016-2.622-3.035-5.113-6.185-7.782-9.176-1.004-1.229-1.732-2.68-2.887-3.78-.957-1.039-1.746-2.228-2.766-3.21-.957-1.029-2.122-1.854-2.959-3-.596-.822-1.459-1.419-1.996-2.288-.087-.679-.049-1.369-.161-2.046-.245-1.312.072-2.635.045-3.957.104-1.754.002-3.512.104-5.268l-.72-.402c-.289.247-.653.432-.856.764-2.019 4.159-4.067 8.321-6.533 12.236-1.217-1.411-2.382-2.915-3.003-4.704-.336-.939-.715-1.869-.883-2.858-.307-1.811-1.521-3.377-1.477-5.266.025-.774-.383-1.446-.767-2.081l-.784.025-.829 1.057c-.91-.744-2.019-.23-3.001.032-1.39.35-2.442 1.424-3.792 1.879-.648-1.376-1.647-2.548-2.256-3.944-.641-1.389-1.247-2.798-1.981-4.142z" id="Shape"/><path d="M131.923 58.54c1.563.33 3.087.824 4.616 1.294 1.549.322 3.045.882 4.435 1.639.935.679 1.962 1.212 2.973 1.764 1.897.974 3.414 2.523 5.138 3.76.955.957 1.771 2.058 2.788 2.963 1.499 1.331 2.617 3.018 3.839 4.596 1.895 2.311 3.528 4.829 4.985 7.439 1.346 2.69 2.805 5.333 3.772 8.196l.658-.175c-.032-1.159.19-2.428-.445-3.465-.888-1.854-1.791-3.702-2.639-5.578-1.905-3.597-4.475-6.772-7.139-9.818-2.212-2.106-4.121-4.509-6.417-6.528-1.425-1.466-3.409-2.153-4.905-3.525 1.368.295 2.644.894 4.007 1.207 1.759.4 3.06 1.771 4.668 2.518 1.685.802 2.823 2.388 4.495 3.203.91.462 1.781 1.007 2.588 1.641 1.118.874 2.444 1.481 3.414 2.548.668.657 1.128 1.519 1.89 2.078 1.106.62 2.333 1.002 3.572 1.249 1.573 1.706 2.996 3.55 4.616 5.211 1.284 1.037 2.219 2.421 3.426 3.54.811.929 1.942 1.511 2.699 2.496 1.497 1.914 2.353 4.234 3.842 6.155 1.887 3.035 2.746 6.558 3.98 9.885 2.298 4.437 3.184 9.41 4.69 14.134.151.942.406 1.864.631 2.79.26 1.619.275 3.268.267 4.904.176 1.651.48 3.302.421 4.971-.077 1.064-.235 2.121-.284 3.188l-.336-.01c-.126-1.229-.309-2.456-.599-3.655-.381-1.494-.136-3.128-.893-4.522-.101-1.656-.881-3.143-1.259-4.729-.292-2.116-1.098-4.104-1.759-6.118-.591-1.744-1.106-3.545-2.162-5.074-.861-1.601-2.165-2.885-3.114-4.424-.445-.692-.913-1.366-1.39-2.033-1.185-1.614-2.733-2.89-4.087-4.349-1.541-1.481-3.463-2.491-4.965-4.017-.95-.769-2.113-1.197-3.181-1.766-1.776-.972-3.688-1.651-5.593-2.313-1.034-.357-1.759-1.359-2.85-1.549-1.603-.42-3.107.582-4.712.515-1.677-.07-3.273.565-4.942.525-1.108.05-2.122.557-3.201.769-1.024.202-1.915.767-2.872 1.152-2.615.839-5.034 2.176-7.671 2.955-1.69.28-3.097 1.331-4.752 1.709-1.079.292-2.041.884-3.087 1.257-1.618.56-3.134 1.434-4.423 2.568-.757.947-1.989 1.034-3.008 1.534-1.024.49-2.179.615-3.181 1.162-1.63.872-3.327 1.611-4.965 2.466-1.445.954-3.003 1.754-4.299 2.92-.821.682-1.882 1.064-2.508 1.973-1.682 2.168-4.24 3.35-6.061 5.366-.863-1.416-1.838-2.76-2.721-4.164-1.717-2.258-3.926-4.052-6.08-5.866-2.058-2.081-4.67-3.482-7.322-4.641-2.677-1.551-5.657-2.401-8.571-3.36-1.502-.097-2.973-.52-4.492-.375-1.902-.125-3.763.387-5.66.285-1.066.025-2.118.245-3.184.267-1.403.05-2.672.694-3.993 1.097.121-.16.23-.332.366-.477 1.675-.46 3.364-.957 5.113-.987.826-.012 1.771-.17 2.214-.969 1.662-2.703 3.535-5.258 5.286-7.896 1.054-1.526 2.758-2.373 3.948-3.767.804-1.009 2.162-1.247 3.062-2.146 1.009-.989 2.491-1.234 3.483-2.246 1.014-1.039 2.325-1.671 3.495-2.501 1.338-1.152 2.8-2.141 4.208-3.2 2.33-1.376 4.898-2.293 7.191-3.737 1.383-.762 2.79-1.474 4.111-2.346 2.046-1.302 4.455-1.859 6.481-3.198 1.457-.932 3.095-1.516 4.611-2.341 1.492-.807 3.191-1.009 4.826-1.339 1.605-.325 3.238-.477 4.863-.645 1.759-.162 3.34-1.062 5.083-1.302 1.657-.235 3.337-.34 4.972-.739zm-8.485 6.92c-1.091-.002-2.127.402-3.211.495-2.4.257-4.836.532-7.129 1.324-2.825 1.349-6.031 2.283-8.136 4.754-1.086.917-1.771 2.186-2.761 3.193-1.177 1.237-1.915 2.813-3.045 4.084-.43 2.148-1.9 3.815-2.773 5.768-.895 1.761-1.915 3.56-2.058 5.578-.158 1.079-.309 2.178-.131 3.268.208 1.277.223 2.675 1.064 3.735.757.992 1.163 2.288 2.273 2.965 2.024 1.691 4.816 1.601 7.28 1.329 1.173-.137 2.221-.722 3.367-.977 2.387-1.424 4.913-2.611 7.189-4.219 1.163-.919 2.291-1.886 3.498-2.745 1.484-.884 3.02-1.684 4.445-2.665 1.615-1.099 3.379-1.939 5.049-2.943 2.595-1.704 5.267-3.315 8.23-4.279 2.615-.764 5.081-1.981 7.733-2.628 1.766-.345 2.719-2.206 3.144-3.812-.057-2.593-1.222-5.116-3.117-6.867-1.558-1.936-4.002-2.663-6.043-3.915-1.981-.402-3.965-.807-5.986-.944-1.704-.43-3.478-.357-5.177-.799-1.227.177-2.466.257-3.703.302z" id="Shape"/><path d="M68.579 98.238c2.466-.29 5.044-.3 7.379.664 1.44.62 3.013.819 4.46 1.414 1.895.762 3.884 1.321 5.667 2.346 1.487.969 3.127 1.759 4.329 3.113 3.013 2.693 6.199 5.376 8.136 9.016.292.607.876 1.127.821 1.856.116 1.122-.351 2.168-.497 3.26-.163 2.173-.93 4.242-1.205 6.4-.124 2.008-.319 4.009-.299 6.025-.042 1.117-.22 2.221-.297 3.335-.062.749.304 1.431.542 2.121.329 1.087.139 2.251.317 3.365.374 2.663.925 5.298 1.2 7.976.094 1.139.472 2.238.505 3.387-1.17-1.674-2.075-3.562-3.532-5.009-1.558-1.329-2.842-2.945-4.366-4.312-2.422-1.934-4.965-3.74-7.745-5.111-2.278-.789-4.151-2.413-6.407-3.223-1.195-.332-2.451-.287-3.654-.59-1.692-.44-3.458-.132-5.173-.4-2.664-.38-5.338.12-7.983.445.656-1.786.136-3.69.233-5.533.158-1.816-.863-3.445-.868-5.246-.017-1.601-.537-3.12-.851-4.669-.267-2.473-.725-4.946-.579-7.442.04-.794.378-1.521.675-2.243.487-1.139.589-2.423 1.224-3.502.809-1.394 1.286-2.953 2.142-4.319.524-.864 1.029-1.741 1.534-2.613-.339-.022-.675-.05-1.012-.062l-.294-.012c1.855-.235 3.73-.32 5.598-.437z" id="Shape"/><path d="M61.143 139.886c.811-.35 1.645.107 2.451.237-.893.117-1.892.025-2.639.625-.856.672-1.776 1.294-2.447 2.168-.287-.235-.564-.48-.841-.719.779-1.222 2.184-1.814 3.476-2.311z" id="Shape"/><path d="M76.124 152.629c.391-.794 1.041-1.434 1.826-1.826 1.843-.35 3.807.092 5.373 1.124.945.605 1.615 1.526 2.31 2.391-1.348-1.384-3.221-2.071-5.059-2.478-1.497.19-3.003.322-4.45.789z" id="Shape"/><path d="M90.605 173.445c.715.022 1.415.177 2.115.327 1.027.882 1.262 2.296 1.323 3.585.017 1.504-.569 2.965-1.586 4.059-.26-2.723-.497-5.541-1.853-7.971z" id="Shape"/></g><g stroke="#B3B39F" stroke-width=".094" fill="#B3B39F" sketch:type="MSShapeGroup"><path d="M46.803 23.317c1.163-.807 2.11-1.916 3.404-2.531l.411 1.212c-1.13.867-2.387 1.546-3.693 2.096-1.108.462-2.251.947-3.468.947 1.009-.779 2.246-1.117 3.347-1.724z" id="Shape"/><path d="M61.588 25.863c.967-1.501 2.014-2.963 3.29-4.217.052 1.024.037 2.051.126 3.073l-.23-.917c-.95.824-1.791 2.108-3.186 2.061z" id="Shape"/><path d="M120.707 58.183c1.492-.03 2.951-.372 4.44-.455 1.284.167 2.59-.385 3.849.042.965.3 1.959.482 2.926.769-1.635.4-3.315.505-4.972.739-1.744.24-3.325 1.139-5.083 1.302-1.625.167-3.258.32-4.863.645-1.635.33-3.335.532-4.826 1.339-1.516.824-3.154 1.409-4.611 2.341-2.026 1.339-4.435 1.896-6.481 3.198-1.321.872-2.729 1.584-4.111 2.346-2.293 1.444-4.861 2.361-7.191 3.737-1.408 1.059-2.87 2.048-4.208 3.2-1.17.829-2.481 1.461-3.495 2.501-.992 1.012-2.474 1.257-3.483 2.246-.9.899-2.259 1.137-3.062 2.146-1.19 1.394-2.894 2.241-3.948 3.767-1.751 2.638-3.624 5.194-5.286 7.896-.443.799-1.388.957-2.214.969-1.749.03-3.438.527-5.113.987 1.066-2.041 2.464-3.87 3.951-5.608 1.163-1.159 2.38-2.261 3.508-3.457 2.162-1.983 4.423-3.877 6.306-6.143 1.375-1.197 2.674-2.503 4.223-3.475.44-.347 1.024-.147 1.534-.175.121-.452.235-.904.346-1.356 2.461-1.289 4.873-2.673 7.354-3.932 3.436-2.066 6.978-3.959 10.578-5.721 2.38-1.509 5.108-2.278 7.612-3.535.51-.809 1.482-1.012 2.234-1.511 1.38-.874 2.959-1.336 4.448-1.978 1.511-.222 2.763-1.179 4.247-1.499 1.828-.33 3.513-1.274 5.395-1.324z" id="Shape"/><path d="M139.698 58.933c1.482-.135 2.983.065 4.425.397 1.368.669 2.827 1.114 4.188 1.799 1.776.984 3.448 2.143 5.215 3.148 1.37.707 2.563 1.724 4.017 2.273 2.254 1.376 4.356 3.028 6.221 4.909.663.567 1.39 1.057 1.996 1.689.784.839 1.823 1.416 2.454 2.401-1.239-.247-2.466-.63-3.572-1.249-.762-.56-1.222-1.421-1.89-2.078-.97-1.067-2.296-1.674-3.414-2.548-.806-.635-1.677-1.179-2.588-1.641-1.672-.814-2.81-2.401-4.495-3.203-1.608-.747-2.909-2.118-4.668-2.518-1.363-.312-2.639-.912-4.007-1.207-.799-.287-1.415-.919-2.184-1.269-.576-.285-1.242-.42-1.699-.902z" id="Shape"/><path d="M63.275 98.687c.336.012.673.04 1.012.062-.505.872-1.009 1.749-1.534 2.613-.856 1.366-1.333 2.925-2.142 4.319-.636 1.079-.737 2.363-1.224 3.502-.297.722-.636 1.449-.675 2.243-.146 2.496.312 4.969.579 7.442.314 1.549.834 3.068.851 4.669.005 1.801 1.027 3.43.868 5.246-.096 1.844.423 3.747-.233 5.533l-.032.115c-.304.1-.606.21-.905.32-.594.002-1.175.107-1.727.325-.069-2.283-1.054-4.409-1.148-6.685-.287-1.914-1.314-3.622-1.504-5.558-.331-2.885-1.029-5.751-.876-8.673.445-3.342.653-6.735 1.563-9.995.408-1.234.905-2.441 1.442-3.625.307-.662 1.14-.669 1.734-.899 1.323-.285 2.617-.712 3.951-.954z" id="Shape"/></g><g stroke="#4E4D3F" stroke-width=".094" fill="#4E4D3F" sketch:type="MSShapeGroup"><path d="M44.653 25.755c.982-.262 2.09-.777 3.001-.032-1.84 1.421-4.203 1.871-6.063 3.273-.252-.45-.497-.902-.73-1.361 1.351-.455 2.402-1.529 3.792-1.879z" id="Shape"/><path d="M52.393 34.846c.621 1.789 1.786 3.292 3.003 4.704-.46.585-.945 1.149-1.467 1.681-.418-2.153-1.148-4.229-1.536-6.385z" id="Shape"/><path d="M157.056 90.291c1.865-.487 3.844-.295 5.672.235 1.363.804 2.946 1.049 4.351 1.759 1.744.674 2.956 2.216 4.633 3.013.725.325 1.262.929 1.801 1.499 1.2 1.299 2.543 2.453 3.923 3.55.668.512 1.074 1.269 1.544 1.954.851 1.299 1.771 2.553 2.647 3.837.947 1.369 2.09 2.608 2.84 4.109.581 1.074.881 2.266 1.38 3.377.905 1.971 1.45 4.084 1.991 6.18.482 1.871 1.398 3.635 1.544 5.588.119 1.411.757 2.708.895 4.117-.876-.807-1.536-1.819-1.989-2.92-.475-1.179-1.494-1.986-2.147-3.05l-.468-.27c-.44-.994-1.346-1.641-1.929-2.536-1.173-1.796-2.929-3.078-4.594-4.372-.814-.784-1.774-1.374-2.689-2.023-4.047-3.27-8.883-5.493-13.942-6.6-1.088-.22-2.113-.694-3.218-.827-4.532-.467-9.108-.342-13.623.237-1.929.15-3.488 1.451-5.331 1.916-1.986.952-3.819 2.238-5.912 2.963-2.496 1.284-4.858 2.825-7.379 4.067-1.291.632-2.437 1.531-3.753 2.116-.688.307-1.363.647-1.999 1.057-1.818 1.169-3.718 2.203-5.553 3.347-2.419 1.496-5.022 2.685-7.332 4.362-1.056.767-2.231 1.376-3.179 2.293-.957.942-2.066 1.716-2.973 2.71-1.012 1.107-2.427 1.816-3.169 3.17-.475-3.055-.292-6.185.366-9.198.505-2.928.957-5.871 1.828-8.716.069-.22.183-.415.341-.582 1.808-2.116 4.156-3.67 5.927-5.823.359-.442.742-.864 1.143-1.267 1.098-.11 1.89-.932 2.783-1.491 3.174-2.118 6.516-4.019 10.11-5.311 1.635-.824 3.325-1.536 4.933-2.413 2.694-1.386 5.657-2.143 8.307-3.62 1.138-.352 2.162-.957 3.228-1.471 2.315-.769 4.663-1.484 6.83-2.63 2.118-.787 4.267-1.581 6.533-1.784 1.85-.455 3.782-.08 5.628-.552z" id="Shape"/><path d="M132.163 95.887c1.655-.377 3.062-1.429 4.752-1.709-1.014 1.079-2.484 1.444-3.79 2.026-1.049.46-2.13.847-3.201 1.252-1.764.732-3.401 1.801-5.271 2.256 1.289-1.134 2.805-2.008 4.423-2.568 1.046-.372 2.009-.964 3.087-1.257z" id="Shape"/><path d="M103.181 162.883c.591.642.75 1.539 1.173 2.286.683 1.227 1.276 2.508 2.024 3.7 1.427 2.118 2.521 4.444 3.817 6.645.542.864.549 1.926.881 2.873.364 1.127.93 2.251.868 3.467-.957 2.101-3.468 2.296-5.452 2.551-1.42.095-2.892.542-4.289.092.527-2.558.448-5.196 1.017-7.742.319-2.785.329-5.591.317-8.389.188-1.839-.124-3.667-.354-5.483z" id="Shape"/></g><path d="M.262.072c.433-.13.576.595.158.694-.445.142-.594-.605-.158-.694z" id="Shape" transform="translate(169.202 27.229)" stroke="#040202" stroke-width=".094" fill="#040202" sketch:type="MSShapeGroup" opacity=".28"/><g stroke="#D6D6C7" stroke-width=".094" fill="#D6D6C7" sketch:type="MSShapeGroup"><path d="M87.384 60.501c.245-.24.581-.255.903-.232.139.327.287.65.448.969-1.697 1.371-3.77 2.136-5.638 3.228-.398-.067-.559-.44-.71-.764 1.803-.832 3.399-2.028 4.997-3.2z" id="Shape"/><path d="M92.613 64.129c1.103-.472 2.15-1.069 3.095-1.819 1.67-.092 3.32.197 4.97.412 1.103-.042 2.231-.025 3.307-.322l-.304.42c-1.15.482-2.296.974-3.448 1.449-.628.155-1.254.335-1.858.575l-.106-.07-.584-.372c-.846.252-1.682.557-2.555.684-.705.117-1.321-.332-1.929-.612-1.472.962-2.857 2.051-4.324 3.023-1.516 1.067-3.191 1.901-4.591 3.135-1.343 1.022-2.674 2.323-4.45 2.411l.126-.674c.349-.625 1.046-.897 1.652-1.197 1.526-.605 2.751-1.746 4.218-2.463 1.296-.862 2.696-1.569 3.899-2.573.92-.729 2.031-1.187 2.884-2.006z" id="Shape"/><path d="M179.624 80.057c1.212-.26 2.464-.267 3.693-.14 1.831.49 3.639 1.079 5.462 1.606 1.081.242 1.779 1.199 2.424 2.031-.448-.017-.893-.01-1.336-.002-.569-.724-1.499-.595-2.301-.557-.524-1.344-2.466-1.339-3.231-.237-1.482-.095-2.971-.222-4.448-.027-1.247.157-2.6-.247-3.273-1.386.841-.24 1.707-.352 2.555-.552.163-.237.314-.482.453-.734z" id="Shape"/><path d="M58.531 136.536c.893-.26 1.793-.507 2.709-.684.188.287.562.537.49.927-.675.687-1.432 1.292-2.056 2.033-.952.517-1.86 1.109-2.669 1.839-.705.48-1.348 1.054-1.816 1.779-.863 1.279-2.15 2.221-2.87 3.605-.925 1.726-2.075 3.492-1.922 5.551.443.135.886.28 1.336.4l-.767-.085c-1.148-.257-2.313.045-3.466.112.757-1.601 2.1-2.87 2.701-4.547.994-.932 1.437-2.268 2.286-3.315 1.759-2.516 3.664-4.969 5.986-6.982l.057-.632z" id="Shape"/></g><g stroke="#C7C7B3" stroke-width=".094" fill="#C7C7B3" sketch:type="MSShapeGroup"><path d="M88.735 61.238c.707.702 1.009 1.689 1.652 2.441-.477.2-.933.46-1.323.802-1.326 1.122-2.8 2.048-4.275 2.95-.361-1.124-1.074-2.048-1.905-2.86l.213-.105c1.868-1.092 3.941-1.856 5.638-3.228z" id="Shape"/><path d="M88.876 67.496c1.467-.972 2.852-2.061 4.324-3.023.609.28 1.224.729 1.929.612.873-.127 1.709-.432 2.555-.684l.584.372c-1.462.757-2.909 1.541-4.302 2.418-.586.477-1.051 1.122-1.761 1.426-1.029.425-1.944 1.079-2.959 1.536-1.321.592-2.296 1.784-3.693 2.218-2.066.964-4.077 2.046-6.093 3.105.134-1.039-.037-2.161.5-3.11l-.126.674c1.776-.087 3.107-1.389 4.45-2.411 1.4-1.234 3.075-2.068 4.591-3.135z" id="Shape"/><path d="M176.242 81.828c-.213-.3.188-.355.374-.485.673 1.139 2.026 1.544 3.273 1.386 1.477-.195 2.966-.067 4.448.027-.638 1.631-.606 3.532.195 5.099.628 1.267 1.452 2.64 2.86 3.118 1.143.355 2.32-.19 3.263-.819.618-.462 1.306-1.099 1.239-1.951.092-1.804-1.224-3.175-2.026-4.651.443-.007.888-.015 1.336.002 1.489.722 2.348 2.201 3.523 3.3 1.497 1.569 2.417 3.567 3.691 5.306 1.182 2.111 2.118 4.349 3.082 6.57.851 2.003 1.549 4.082 1.915 6.235.923 2.963 1.247 6.085.994 9.181-.611.177-.495.789-.423 1.277l.898.477c-.304.812-.606 1.626-.952 2.421-.876.907-2.033 1.434-3.058 2.136-1.962 1.356-4.284 2.436-6.719 2.156.109-1.849-.356-3.645-1.051-5.341-.757-1.831-.942-3.837-1.729-5.653-1.044-2.621-1.422-5.481-2.741-7.991-.742-1.876-1.242-3.847-2.078-5.688-.801-1.754-1.158-3.702-2.192-5.348-.804-1.202-1.469-2.501-2.397-3.612-.022-.375-.045-.749-.054-1.122-.623-.794-1.22-1.611-1.868-2.381-1.244-1.239-2.652-2.311-3.802-3.647zm15.468 13.307c-.181.435-.364.869-.564 1.294-.195 1.197-.064 2.396.255 3.557.233 1.696 1.289 3.103 2.293 4.424.789 1.022 2.194.949 3.347.907.98-.779 1.932-1.659 2.434-2.843-.433-1.684-1.301-3.19-2.132-4.694-.581-.987-1.509-1.754-2.625-2.021-.648-1.032-2.001-1.172-3.008-.625zm6.031 14.914c-.623.21-1.049.797-1.415 1.319-.989 1.709-1.314 3.862-.594 5.736.331 1.334 1.348 2.898 2.904 2.695 1.177.097 2.169-.655 3.075-1.307 1.071-.839.997-2.361.895-3.585-.25-1.002.173-2.268-.762-2.995-1.195-.907-2.516-1.998-4.104-1.864z" id="Shape"/><path d="M61.148 135.739c1.074-.057 2.12-.335 3.189-.465 1.558-.13 3.127-.05 4.69-.047 1.999.075 3.965.515 5.964.607 1.732.15 3.31.974 4.769 1.874 2.298 1.414 4.886 2.303 7.077 3.895 1.89 1.207 3.624 2.665 5.175 4.289 1.363 1.609 3.184 2.788 4.297 4.616 1.19 1.514 1.892 3.32 2.803 5.001.495 1.159.925 2.348 1.336 3.542.589 1.901 1.106 3.842 1.239 5.838.082.6-.376 1.064-.698 1.516-1.012 1.242-2.028 2.481-2.964 3.785-.886 1.259-1.979 2.356-2.83 3.645l-.421-.132c-.51-1.197-1.838-1.586-2.978-1.881-1.61-.085-3.199.57-4.44 1.579-1.378 1.371-1.398 3.412-1.793 5.194l-.317.719c-.915.285-1.865.402-2.79.625-1.991.64-4.101.864-6.184.782l-.183.047c-.025-1.391-.23-2.765-.346-4.144-.421-1.117-.505-2.308-.754-3.465-.45-1.464-.784-2.983-1.561-4.317-.977-2.098-2.105-4.122-3.372-6.055-.893-1.157-1.942-2.181-2.887-3.295-1.6-2.151-3.968-3.497-6.189-4.894-1.39-.834-2.996-1.137-4.482-1.736-1.534-.547-3.166-.65-4.764-.877-.45-.12-.893-.265-1.336-.4-.153-2.058.997-3.825 1.922-5.551.72-1.384 2.006-2.326 2.87-3.605.468-.724 1.111-1.299 1.816-1.779-.416.902-.092 1.934-.468 2.853l.515.282-.032.615c.804 1.017 1.796 1.879 2.973 2.421 1.811 1.067 3.978 1.631 6.058 1.199.675-.437 1.514-.742 1.89-1.516.421-.819.999-1.639.977-2.601.025-1.032-.186-2.088-.646-3.01-.836-1.124-2.231-1.561-3.461-2.083-1.667-.522-3.451-.285-5.138.002.623-.742 1.38-1.346 2.056-2.033.072-.39-.302-.64-.49-.927l-.092-.112zm14.657 14.584c-1.16.794-1.541 2.218-1.432 3.572.428 1.369.994 2.785 2.142 3.707.247.18.336.48.47.749 1.076.744 1.596 2.031 2.615 2.84 1.041.859 2.335 1.292 3.589 1.731 1.041.312 2.194.067 3.008-.662 1.222-.859 1.692-2.331 2.214-3.665.03-1.454.148-3.063-.717-4.322-.933-1.287-1.858-2.643-3.201-3.535-2.523-1.651-6.093-2.208-8.688-.417z" id="Shape"/></g><path id="Shape" d="M.336-.052c.495.09-.03.809-.304.42l.304-.42z" transform="translate(103.649 62.452)" stroke="#221C1B" stroke-width=".094" fill="#221C1B" sketch:type="MSShapeGroup" opacity=".78"/><path id="Shape" d="M.124-.015c.319-.14.522-.032.611.315l-.262.1c-.346.022-.463-.115-.349-.415z" transform="translate(192.703 82.437)" stroke="#190E08" stroke-width=".094" fill="#190E08" sketch:type="MSShapeGroup" opacity=".69"/><g stroke="#FC0101" stroke-width=".094" fill="#FC0101" sketch:type="MSShapeGroup"><path d="M185.697 84.173c1.645 1.252 2.682 3.088 3.772 4.806-.532.197-1.18.595-1.722.21-1.722-.964-2.39-3.14-2.051-5.016z" id="Shape"/><path d="M194.338 102.762c-1.15-1.696-2.199-3.76-1.605-5.868.599.137 1.19.335 1.734.632l-.762.017c1.291 1.891 2.585 3.937 2.639 6.315-.7-.285-1.494-.5-2.006-1.097z" id="Shape"/><path d="M198.157 118.422c-1.712-1.526-1.897-4.394-.388-6.118 1.022 1.386 1.66 3.163 1.244 4.894-.047.537-.534.854-.856 1.224z" id="Shape"/><path d="M59.664 144.41c.552-1.082 1.576-1.819 2.503-2.553 1.45-.365 2.971-.022 4.43.185.717.682.75 1.749.351 2.613-.215.997-1.118 1.784-2.127 1.834-1.192.1-2.323-.387-3.384-.877-.633-.32-1.346-.6-1.774-1.202z" id="Shape"/><path d="M77.017 153.98c1.098-.605 2.424-.535 3.636-.49 2.469.317 4.168 2.316 5.855 3.954.002 1.494-.646 3.38-2.202 3.847-2.033-.14-3.876-1.369-5.039-3.028-.398-.637-1.029-1.042-1.722-1.284l-.087-.565c-.562-.595-1.541-1.904-.443-2.436z" id="Shape"/><path d="M87.599 176.386c.198-.917.789-1.674 1.452-2.303 1.398 2.228 1.764 4.961 1.596 7.552-.49.43-.957.889-1.393 1.379-1.687.212-2.944-1.973-2.254-3.432.364-1.032.27-2.153.599-3.195z" id="Shape"/></g><g stroke="#97967C" stroke-width=".094" fill="#97967C" sketch:type="MSShapeGroup"><path d="M187.228 84.203c.547.12 1.217.135 1.576.647.549.707.989 1.499 1.368 2.313-1.066-.897-1.925-2.008-2.944-2.96z" id="Shape"/><path d="M192.732 96.894c.114-.232.245-.455.403-.659 1.276.732 2.491 1.681 3.142 3.05.482 1.079 1.269 2.016 1.558 3.18-.792-.852-.908-2.103-1.667-2.983-.579-.645-1.168-1.279-1.702-1.956-.544-.297-1.135-.495-1.734-.632z" id="Shape"/><path d="M199.503 112.137c1.843.767 1.974 3.135 1.405 4.799l-.383.18c-.005-.817.052-1.641-.064-2.451-.237-.872-.683-1.669-.957-2.528z" id="Shape"/></g><g stroke="#65655B" stroke-width=".094" fill="#65655B" sketch:type="MSShapeGroup"><path d="M193.103 117.271c.695 1.696 1.16 3.492 1.051 5.341 2.434.28 4.757-.799 6.719-2.156 1.024-.702 2.182-1.229 3.058-2.136-.213 1.309-1.338 2.146-1.828 3.33-1.224 2.68-3.241 4.864-5.135 7.067-.962.64-1.811 1.419-2.654 2.206-.072-1.252.092-2.511-.139-3.75-.322-1.824-.01-3.68-.195-5.513.032-1.524-.73-2.893-.876-4.389z" id="Shape"/><path d="M100.448 159.051c1.187 2.226 1.415 4.826 1.526 7.307-.329 2.078-.208 4.182-.21 6.278.119 2.356-.586 4.641-.698 6.982-.069 1.299-.292 2.586-.544 3.862-.49.482-.908 1.039-1.405 1.516-.678.445-1.516.457-2.293.547-1.276 1.057-2.887 1.516-4.433 1.991-1.187.295-2.353.692-3.565.854-2.194.322-4.421.335-6.602.742-2.753.135-5.484.512-8.218.842.71-2.051 1.341-4.142 1.704-6.288.181-.964.012-1.996.378-2.918l.183-.047c2.083.082 4.193-.142 6.184-.782.925-.222 1.875-.34 2.79-.625l.317-.719c-.265 1.029-.524 2.106-.327 3.173.25 1.371 1.291 2.621 2.654 2.958 1.301.23 2.714.07 3.852-.64 3.542-1.856 4.952-6.882 3.033-10.382l.421.132c.851-1.289 1.944-2.386 2.83-3.645.935-1.304 1.952-2.543 2.964-3.785.322-.452.779-.917.698-1.516-.134-1.996-.651-3.937-1.239-5.838z" id="Shape"/></g><path d="M.03.077l.757.027c.047.662.104 1.326.203 1.986-.344-.662-.472-1.434-.96-2.013z" id="Shape" transform="translate(189.487 129.651)" stroke="#090405" stroke-width=".094" fill="#090405" sketch:type="MSShapeGroup" opacity=".56"/><path d="M.104 3.268c.077-1.114.255-2.218.297-3.335-.027 1.824.339 3.63.245 5.456-.237-.689-.604-1.371-.542-2.121z" transform="translate(96.97 132.399)" stroke-width=".094" stroke="#4B493B" fill="#4B493B" sketch:type="MSShapeGroup"/><path d="M170.012 202.427l-10.861 5.351-.097-40.573-9.6 10.411-4.073 23.351-8.727 4.865 3.297-65.676 7.564-4.476-1.164 42.616c3.038-4.8 5.786-8.4 8.242-10.8.776-.778 2.004-1.978 3.685-3.6 2.069-1.946 4.428-2.919 7.079-2.919 2.78 0 4.428.649 4.945 1.946.84 2.205 1.261 5.513 1.261 9.924 0 5.189-.259 11.416-.776 18.681l-.776 10.897zm25.503-1.946c-4.913 0-9.374-1.103-13.382-3.308-4.913-2.724-7.37-6.357-7.37-10.897 0-3.762 1.842-7.005 5.527-9.73 2.844-2.141 6.4-3.762 10.667-4.865 2.263-.584 4.816-.876 7.661-.876 2.457 0 5.366.422 8.727 1.265 1.681.259 3.265.876 4.752 1.849-1.293-2.724-3.685-5.124-7.176-7.2-2.909-1.751-7.143-3.276-12.703-4.573-1.939-.454-4.622-.973-8.048-1.557l-1.939-8.562c.582 0 2.166.324 4.752.973 9.503 2.4 16.937 5.87 22.303 10.411 5.56 4.735 8.76 11.157 9.6 19.265v17.805l-4.655-.584-.097-6.032c-1.552 1.492-3.329 2.757-5.333 3.795-3.556 1.881-7.984 2.822-13.285 2.822zm3.103-15.957c-2.198.519-4.04 1.395-5.527 2.627-1.745 1.492-2.618 3.276-2.618 5.351 0 3.503 2.521 5.254 7.564 5.254 2.651 0 5.236-.681 7.758-2.043 3.038-1.622 4.558-3.665 4.558-6.13 0-.324-.065-.746-.194-1.265-.711-2.789-3.362-4.184-7.952-4.184h-1.455c-.259 0-.97.13-2.133.389zm62.739 8.951c-3.168 2.076-8.242 3.827-15.224 5.254-1.875.389-5.107.941-9.697 1.654l1.745 24.616-6.788.584-2.909-33.859-3.394-.389-2.133-30.162c3.685-1.427 6.723-2.497 9.115-3.211 7.37-2.205 13.77-3.308 19.2-3.308 13.382 0 20.073 5.416 20.073 16.249 0 10.638-3.329 18.162-9.988 22.573zm-10.473-14.984c-.129-.065-.485-.097-1.067-.097-1.81 0-4.816.292-9.018.876-1.487.195-3.523.519-6.109.973l1.261 15.665c1.293-.065 2.327-.13 3.103-.195 7.37-.584 12.283-2.27 14.739-5.059 1.487-1.686 2.23-3.6 2.23-5.741 0-3.632-1.713-5.773-5.139-6.422zm33.358-29.384c-2.263 0-4.202-.519-5.818-1.557-2.004-1.232-3.006-2.886-3.006-4.962 0-1.622 1.131-3.049 3.394-4.281 2.004-1.038 3.879-1.557 5.624-1.557 2.133 0 4.073.454 5.818 1.362 2.133 1.103 3.2 2.627 3.2 4.573 0 2.141-1.034 3.795-3.103 4.962-1.745.973-3.782 1.459-6.109 1.459zm-4.752 51.859l.485-27.827 14.933-.973 3.976 29.481-19.394-.681z" fill="#0A0203" sketch:type="MSShapeGroup"/></g></svg>