<?xml version="1.0" encoding="utf-8"?>
<!-- Generator: Adobe Illustrator 16.0.0, SVG Export Plug-In . SVG Version: 6.00 Build 0)  -->
<!DOCTYPE svg PUBLIC "-//W3C//DTD SVG 1.1//EN" "http://www.w3.org/Graphics/SVG/1.1/DTD/svg11.dtd">
<svg version="1.1" id="Layer_1" xmlns="http://www.w3.org/2000/svg" xmlns:xlink="http://www.w3.org/1999/xlink" x="0px" y="0px"
	 width="1024px" height="211.04px" viewBox="0 0 1024 211.04" enable-background="new 0 0 1024 211.04" xml:space="preserve">
<g>
	<path fill-rule="evenodd" clip-rule="evenodd" fill="#05A1C7" d="M978.021,163.89c-41.662,0-62.489-24.72-62.489-59.055
		c0-33.191,18.538-56.995,47.612-56.995c13.73,0,22.887,4.807,29.526,11.444V0h31.358v153.819
		C1010.979,159.997,994.96,163.89,978.021,163.89z M992.671,79.656c-5.726-4.807-12.36-7.553-20.831-7.553
		c-16.938,0-24.948,13.733-24.948,33.188c0,19.916,8.694,35.021,30.668,35.021c5.954,0,11.446-0.914,15.111-2.746V79.656z
		 M869.664,91.102v70.499h-31.358V50.129h30.212v19.684c4.35-13.047,13.507-20.829,28.841-20.829c3.894,0,6.868,0.457,9.386,1.145
		v26.78h-5.264C885.917,76.91,875.842,81.945,869.664,91.102z M789.239,149.698c-8.243,8.01-19.917,14.191-35.023,14.191
		c-19.456,0-32.044-13.507-32.044-31.587c0-20.374,14.649-30.902,38.455-32.503c9.156-0.688,19.456-0.916,27.466-1.145v-3.891
		c0-14.192-6.868-21.976-21.745-21.976c-11.675,0-22.202,3.206-30.212,7.327l-6.183-21.976
		c11.446-6.637,25.867-10.299,41.887-10.299c29.531,0,47.611,16.479,47.611,48.066v65.694h-30.212V149.698z M788.093,116.969
		c-6.411,0.457-14.192,1.142-20.37,2.056c-9.156,1.376-15.11,4.35-15.11,12.593c0,7.324,5.04,10.984,13.05,10.984
		c8.695,0,16.71-3.432,22.431-8.01V116.969z M657.916,163.89c-37.084,0-57.454-25.638-57.454-57.91
		c0-32.275,20.37-58.14,57.454-58.14c37.079,0,57.453,25.864,57.453,58.14C715.369,138.252,694.995,163.89,657.916,163.89z
		 M657.916,71.187c-19.228,0-26.096,16.481-26.096,34.793c0,18.08,6.868,34.562,26.096,34.562s26.095-16.481,26.095-34.562
		C684.011,87.668,677.144,71.187,657.916,71.187z M527.264,163.89c-16.936,0-32.958-3.893-46.006-10.07V0h31.359v59.284
		c6.637-6.637,15.793-11.444,29.528-11.444c29.069,0,47.607,23.804,47.607,56.995C589.753,139.17,568.926,163.89,527.264,163.89z
		 M533.445,72.103c-8.467,0-15.105,2.746-20.828,7.553v57.911c3.662,1.832,9.154,2.746,15.107,2.746
		c21.974,0,30.669-15.105,30.669-35.021C558.394,85.836,550.384,72.103,533.445,72.103z M407.698,138.48l18.312,1.146
		c22.89,1.371,36.622,9.614,36.622,29.299c0,26.78-31.128,42.114-64.09,42.114c-25.636,0-49.67-7.781-49.67-28.38
		c0-15.339,14.421-22.201,28.841-25.638c-6.408-3.203-10.301-8.238-10.301-15.562c0-10.532,8.472-16.938,15.565-20.146
		c-17.853-5.264-27.925-18.311-27.925-35.019c0-21.976,16.938-38.455,46.696-38.455c6.18,0,11.902,0.914,16.938,2.29h43.49v20.829
		h-17.626c2.518,4.35,3.891,9.842,3.891,15.337c0,21.286-17.395,37.765-46.693,37.765c-0.688,0-2.061,0-3.891-0.229
		c-1.375,2.289-2.518,4.122-2.518,7.097C395.338,136.191,400.374,138.023,407.698,138.48z M401.747,104.147
		c11.674,0,19.227-7.096,19.227-18.083c0-11.215-7.325-18.312-19.227-18.312c-11.903,0-19.228,6.868-19.228,18.312
		C382.52,97.282,390.072,104.147,401.747,104.147z M391.905,160.688c-5.952,3.202-13.507,7.781-13.507,16.02
		c0,9.385,8.7,13.734,22.661,13.734c16.024,0,32.503-5.953,32.503-17.395c0-7.324-6.408-9.613-16.25-10.304L391.905,160.688z
		 M308.272,149.698c-8.238,8.01-19.913,14.191-35.019,14.191c-19.458,0-32.046-13.507-32.046-31.587
		c0-20.374,14.649-30.902,38.455-32.503c9.154-0.688,19.456-0.916,27.468-1.145v-3.891c0-14.192-6.868-21.976-21.748-21.976
		c-11.672,0-22.202,3.206-30.212,7.327l-6.182-21.976c11.446-6.637,25.866-10.299,41.889-10.299
		c29.528,0,47.609,16.479,47.609,48.066v65.694h-30.214V149.698z M307.13,116.969c-6.411,0.457-14.192,1.142-20.372,2.056
		c-9.157,1.376-15.108,4.35-15.108,12.593c0,7.324,5.035,10.984,13.047,10.984c8.698,0,16.71-3.432,22.433-8.01V116.969z
		 M207.018,139.398c5.723,0,11.903-0.918,16.938-2.518l2.289,22.202c-6.639,2.746-17.626,4.807-27.696,4.807
		c-26.78,0-37.082-17.623-37.082-40.516V74.621h-18.083V50.129h18.083V21.288h31.359v28.841h33.419v24.491h-33.419v47.84
		C192.826,132.76,195.8,139.398,207.018,139.398z M103.431,74.054h21.06v18.999h-23.349l-3.431,28.153H74.818l3.434-28.153H42.773
		l-3.205,28.153H16.45l3.434-28.153H-0.029V74.054h21.974L25.378,45.9H3.862V26.901h23.575l3.434-26.78h22.89l-3.203,26.78h35.25
		l3.432-26.78h22.89l-3.203,26.78h19.456V45.9h-21.745L103.431,74.054z M48.268,45.9l-3.206,28.154h35.25L83.746,45.9H48.268z"/>
</g>
</svg>
