<?xml version="1.0" encoding="utf-8"?>
<!-- Generator: Adobe Illustrator 16.0.0, SVG Export Plug-In . SVG Version: 6.00 Build 0)  -->
<!DOCTYPE svg PUBLIC "-//W3C//DTD SVG 1.1//EN" "http://www.w3.org/Graphics/SVG/1.1/DTD/svg11.dtd">
<svg version="1.1" id="LOGO" xmlns="http://www.w3.org/2000/svg" xmlns:xlink="http://www.w3.org/1999/xlink" x="0px" y="0px"
	 width="109.85px" height="32.207px" viewBox="0 0 109.85 32.207" enable-background="new 0 0 109.85 32.207" xml:space="preserve">
<g>
	<rect x="16" y="6.958" fill="#FCB416" width="3" height="18"/>
	<rect y="6.958" fill="#008CCB" width="7" height="18"/>
	<rect x="8" y="6.958" fill="#03A74B" width="4" height="18"/>
	<rect x="13" y="6.958" fill="#EE3425" width="2" height="18"/>
</g>
<g>
	<path d="M24.038,6.916h5.165v2.02h0.033h0.066c1.092-1.391,2.913-2.649,5.727-2.649c6.522,0,8.973,5.729,8.973,10
		c0,5.297-3.708,9.634-8.939,9.634c-3.311,0-4.866-1.589-5.529-2.284v8.571h-5.496V6.916z M38.505,16.12
		c0-2.186-1.589-4.701-4.602-4.701c-3.012,0-4.602,2.516-4.602,4.701c0,2.317,1.721,4.668,4.602,4.668
		C36.784,20.788,38.505,18.438,38.505,16.12z"/>
	<path d="M50.789,5.227h-5.496V0h5.496V5.227z M50.789,25.291h-5.496V6.916h5.496V25.291z"/>
	<path d="M52.311,0h5.496v13.571h0.066l5.099-6.655h6.521l-6.919,8.078l6.722,10.297h-6.225l-5.198-8.84h-0.066v8.84h-5.496V0z"/>
	<path d="M77.34,12.081c-0.032-0.397-0.099-1.391-1.721-1.391c-1.159,0-1.557,0.729-1.557,1.226c0,0.992,1.358,1.556,2.814,1.986
		c3.113,0.86,6.423,1.787,6.423,5.76c0,3.874-3.41,6.258-7.483,6.258c-2.78,0-6.985-1.258-7.482-6.092h5.462
		c0.232,1.688,1.854,1.688,2.086,1.688c0.927,0,1.92-0.528,1.92-1.422c0-1.425-1.357-1.59-4.866-2.947
		c-2.384-0.762-4.371-2.318-4.371-4.801c0-3.642,3.311-6.06,7.119-6.06c2.417,0,6.588,0.961,7.052,5.795H77.34z"/>
	<path d="M102.554,19.53c-0.894,2.053-2.185,3.642-3.741,4.701c-1.523,1.093-3.344,1.655-5.231,1.655
		c-5.264,0-9.733-4.271-9.733-9.733c0-5.132,4.039-9.867,9.634-9.867c5.595,0,9.701,4.437,9.701,10.032
		c0,0.729-0.067,1.026-0.132,1.457H89.277c0.331,2.186,2.152,3.477,4.304,3.477c1.689,0,2.583-0.762,3.344-1.722H102.554z
		 M97.688,14.067c-0.232-1.093-1.325-3.146-4.172-3.146c-2.847,0-3.94,2.053-4.172,3.146H97.688z"/>
	<path d="M104.354,0h5.496v25.291h-5.496V0z"/>
</g>
</svg>
