<?xml version="1.0" encoding="utf-8"?>
<!-- Generator: Adobe Illustrator 16.0.0, SVG Export Plug-In . SVG Version: 6.00 Build 0)  -->
<!DOCTYPE svg PUBLIC "-//W3C//DTD SVG 1.1//EN" "http://www.w3.org/Graphics/SVG/1.1/DTD/svg11.dtd">
<svg version="1.1" id="Layer_1" xmlns="http://www.w3.org/2000/svg" xmlns:xlink="http://www.w3.org/1999/xlink" x="0px" y="0px"
	 width="118px" height="31px" viewBox="0 0 118 31" enable-background="new 0 0 118 31" xml:space="preserve">
<g>
	<path fill="#EC1C24" d="M30.207,15.493c0,8.336-6.758,15.09-15.09,15.09c-8.335,0-15.094-6.754-15.094-15.09
		c0-8.335,6.758-15.092,15.094-15.092C23.449,0.401,30.207,7.158,30.207,15.493"/>
	<path fill="#FFFFFF" d="M7.546,21.094c-0.496,0.143-1.049,0.099-1.536-0.171c-0.979-0.539-1.337-1.767-0.801-2.744l4.071-7.393
		c0.538-0.975,1.766-1.331,2.743-0.794c0.979,0.54,1.337,1.768,0.796,2.745l-4.064,7.39C8.487,20.616,8.045,20.95,7.546,21.094"/>
	<path fill="#FFFFFF" d="M19.744,21.163c-0.497,0.144-1.045,0.101-1.536-0.171c-0.979-0.538-1.337-1.768-0.797-2.746l4.064-7.389
		c0.54-0.978,1.768-1.335,2.746-0.795c0.979,0.536,1.336,1.765,0.799,2.744l-4.067,7.391C20.685,20.685,20.242,21.02,19.744,21.163"
		/>
	<path fill="#FFFFFF" d="M13.648,21.129c-0.499,0.144-1.05,0.098-1.54-0.17c-0.979-0.538-1.337-1.77-0.796-2.746l4.063-7.39
		c0.542-0.978,1.77-1.335,2.745-0.794c0.979,0.537,1.337,1.766,0.797,2.741l-4.064,7.393C14.585,20.65,14.145,20.984,13.648,21.129"
		/>
	<g>
		<path fill="#231F20" d="M55.218,14.167c0-2.653-1.137-3.998-3.383-3.998c-1.744,0-3.074,1.13-3.635,2.259
			c-0.395-1.52-1.354-2.259-2.924-2.259c-1.632,0-2.98,1.182-3.56,2.299c0.004-0.021,0.007-0.045,0.017-0.071
			c0.02-0.087,0.02-0.21,0.02-0.315V11.61c0-0.77-0.496-1.198-1.402-1.198h-2.749v2.01h1.197c0.281,0,0.415,0.125,0.415,0.395v6.075
			h-1.509V20.9h5.663v-2.009h-1.491v-2.5c0-1.884,0.815-3.788,2.643-3.788c1.142,0,1.376,0.819,1.376,2.051V20.9h4.153v-2.009h-1.51
			v-2.621c0-1.827,0.81-3.667,2.621-3.667c1.157,0,1.394,0.819,1.394,2.051V20.9h4.177v-2.009h-1.513V14.167z"/>
		<path fill="#231F20" d="M68.153,18.497v-8.085h-4.26v2.01h1.597v2.661c0,1.788-0.998,3.687-2.845,3.687
			c-1.126,0-1.604-0.62-1.604-2.074v-6.285h-4.275v2.01h1.613v4.726c0,2.651,1.162,3.997,3.446,3.997c2.412,0,3.57-1.686,3.81-2.251
			v0.074c0,0.033-0.002,0.075-0.006,0.123c-0.01,0.063-0.017,0.141-0.017,0.224v0.388c0,0.783,0.478,1.198,1.382,1.198h2.609v-1.987
			h-1.034C68.277,18.914,68.153,18.783,68.153,18.497"/>
		<path fill="#231F20" d="M77.198,18.892h-2.91c-0.229,0-0.412,0-0.578,0.022c-0.088,0.016-0.157,0.019-0.237,0.019l0.167-0.148
			c0.022-0.023,0.048-0.05,0.076-0.075c0.1-0.095,0.221-0.213,0.331-0.357l5.235-6.209l0.003-0.011v-1.719h-8.954v3.519h2.275V12.42
			h2.686c0.22,0,0.43,0,0.593-0.021c0.09-0.016,0.16-0.02,0.24-0.02l-0.166,0.15l-0.409,0.431l-5.271,6.229l-0.009,0.009v1.704
			h9.218v-3.501h-2.291V18.892z"/>
		<path fill="#231F20" d="M87.371,18.892h-2.906c-0.231,0-0.41,0-0.579,0.022c-0.086,0.016-0.156,0.019-0.237,0.019l0.165-0.148
			c0.025-0.023,0.05-0.05,0.076-0.075c0.103-0.095,0.224-0.213,0.335-0.357l5.229-6.209l0.006-0.011v-1.719h-8.95v3.519h2.273V12.42
			h2.684c0.221,0,0.429,0,0.598-0.021c0.084-0.016,0.159-0.02,0.24-0.02l-0.169,0.15l-0.413,0.431l-5.27,6.229l-0.006,0.009v1.704
			h9.219v-3.501h-2.293V18.892z"/>
		<path fill="#231F20" d="M95.101,18.779c-0.063,0.004-0.134,0.01-0.217,0.01c-0.867,0-1.03-0.468-1.03-1.394V6.327H89.6v2.007
			h1.617v9.221c0,3.071,1.833,3.425,3.219,3.425c0.266,0,0.492,0,0.655-0.02l0.317-0.044v-2.146h-0.176
			C95.194,18.771,95.152,18.773,95.101,18.779"/>
		<path fill="#231F20" d="M101.197,10.169c-3.136,0-5.325,2.255-5.325,5.487c0,3.182,2.368,5.488,5.633,5.488
			c1.404,0,2.461-0.403,3.096-0.739c0.378-0.195,0.805-0.435,1.133-0.719l0.019-0.017l-1.033-1.898l-0.028,0.022
			c-0.282,0.218-0.568,0.395-0.875,0.551c-0.656,0.363-1.37,0.547-2.131,0.547c-1.408,0-2.902-0.876-3.087-2.834h7.207l0.043-0.354
			c0.02-0.188,0.02-0.41,0.02-0.559c0-1.394-0.425-2.646-1.203-3.527C103.834,10.669,102.634,10.169,101.197,10.169 M101.136,12.238
			c1.138,0,1.92,0.871,1.986,2.219h-4.46C98.918,13.088,99.865,12.238,101.136,12.238"/>
		<path fill="#231F20" d="M112.996,10.412v2.01h1.19l-1.864,5.225c-0.085,0.198-0.14,0.417-0.189,0.609
			c-0.013,0.043-0.026,0.086-0.038,0.134l-0.057,0.318c-0.004-0.098-0.022-0.209-0.041-0.322c-0.022-0.08-0.039-0.166-0.058-0.256
			c-0.029-0.16-0.06-0.324-0.127-0.483l-1.882-5.225h1.21v-2.01h-5.195v2.01h1.257l3.562,8.749l-0.277,0.643
			c-0.326,0.752-0.989,1.185-1.811,1.185c-0.433,0-0.843-0.087-1.13-0.242c-0.141-0.061-0.281-0.143-0.426-0.243l-0.031-0.022
			l-0.865,1.961l0.022,0.016c0.219,0.151,0.446,0.272,0.701,0.37c0.603,0.238,1.206,0.351,1.85,0.351
			c1.975,0,3.411-1.026,4.159-2.965l3.834-9.803h1.196v-2.01H112.996z"/>
	</g>
</g>
</svg>
