<svg xmlns="http://www.w3.org/2000/svg" viewBox="0 0 150 100">
    <path fill-opacity="0" d="M0 0h150v100H0z"></path>
    <path d="M135.892 94.823c4.923 0 8.93-4.006 8.93-8.93V14.107c0-4.923-4.007-8.929-8.93-8.929H14.108c-4.924 0-8.93 4.006-8.93 8.929v71.786c0 4.924 4.006 8.93 8.93 8.93zM.01 14.107C.01 6.269 6.335.01 14.108.01h121.784c7.773 0 14.099 6.259 14.099 14.097v71.786c0 7.839-6.326 14.097-14.099 14.097H14.108C6.335 99.99.01 93.732.01 85.893zM82.981 73.13H69.955c-1.91 0-3.172-1.272-3.172-3.167v-9.628c0-1.894 1.262-3.167 3.172-3.167h18.168v-5.141H69.48c-4.326 0-7.845 3.519-7.845 7.844v10.557c0 4.324 3.519 7.844 7.845 7.844h18.643v-15.48H75v5.086h7.98zM67.025 34.425v-4.623c0-1.895 1.262-3.168 3.171-3.168h9.613c1.909 0 3.171 1.273 3.171 3.168v4.623zm15.955 5.144v8.405h5.143V29.338c0-4.326-3.519-7.845-7.845-7.845H69.721c-4.325 0-7.844 3.519-7.844 7.845v18.636h5.148v-8.405zm-43.236 3.263c-1.91 0-3.171-1.273-3.171-3.168v-9.627c0-1.895 1.261-3.167 3.171-3.167l17.927-.001v-5.14H39.27c-4.326 0-7.845 3.518-7.845 7.844v10.556c0 4.325 3.519 7.844 7.845 7.844h18.401v-5.141zM92.1 70.647c0 4.325 3.52 7.844 7.845 7.844h10.993c4.325 0 7.845-3.519 7.845-7.844v-11.04c0-4.325-3.52-7.844-7.845-7.844H99.945c-4.325 0-7.845 3.519-7.845 7.844zm5.149-10.576c0-1.895 1.261-3.167 3.171-3.167h10.049c1.91 0 3.171 1.272 3.171 3.167v10.112c0 1.894-1.261 3.167-3.171 3.167H100.42c-1.91 0-3.171-1.273-3.171-3.168zm21.327-17.743v5.646h-5.142v-5.41c0-1.435-1.159-2.995-3.347-2.995H97.472v8.405h-5.143V21.729h18.078c5.438 0 8.169 4.344 8.169 8.634 0 4.171-1.491 5.598-2.709 6.651 1.575.854 2.709 2.626 2.709 5.314m-5.142-11.675c0-1.734-.877-3.78-3.347-3.78H97.472v7.552h12.611c2.487 0 3.351-2.229 3.351-3.772m-82.009 29.22c0-2.714 1.64-7.846 7.847-7.846h11.072c5.075 0 7.793 3.773 7.793 7.952 0 4.034-2.791 7.954-7.848 7.954H39.558c-2.299 0-2.989 1.454-2.989 2.658v2.538h21.102v5.143H31.425v-7.681c0-4.119 3.376-7.799 8.314-7.799h10.55c1.82 0 2.989-.994 2.989-2.813 0-1.521-.736-2.811-2.88-2.811H39.415c-2.201 0-2.846 1.63-2.846 2.705z" fill="#00A0E1"></path>
</svg>