<?xml version="1.0" encoding="UTF-8" standalone="no"?>
<svg width="129px" height="100px" viewBox="0 0 129 100" version="1.1" xmlns="http://www.w3.org/2000/svg" xmlns:xlink="http://www.w3.org/1999/xlink" xmlns:sketch="http://www.bohemiancoding.com/sketch/ns">
    <!-- Generator: Sketch 3.0.2 (7799) - http://www.bohemiancoding.com/sketch -->
    <title>Untitled 2</title>
    <description>Created with Sketch.</description>
    <defs>
        <linearGradient x1="-846.175988%" y1="-1906.21285%" x2="-87.4088289%" y2="-247.673213%" id="linearGradient-1">
            <stop stop-color="#00001A" offset="0%"></stop>
            <stop stop-color="#051E39" offset="100%"></stop>
        </linearGradient>
        <linearGradient x1="15.8057007%" y1="5.92071846%" x2="58.9006329%" y2="82.104563%" id="linearGradient-2">
            <stop stop-color="#00001A" offset="0%"></stop>
            <stop stop-color="#051E39" offset="100%"></stop>
        </linearGradient>
        <linearGradient x1="19.5259487%" y1="-1207.52115%" x2="42.3754361%" y2="-227.861173%" id="linearGradient-3">
            <stop stop-color="#00001A" offset="0%"></stop>
            <stop stop-color="#051E39" offset="100%"></stop>
        </linearGradient>
        <linearGradient x1="0.00202647933%" y1="50%" x2="100%" y2="50%" id="linearGradient-4">
            <stop stop-color="#00001A" offset="0%"></stop>
            <stop stop-color="#051E39" offset="100%"></stop>
        </linearGradient>
    </defs>
    <g id="Page-1" stroke="none" stroke-width="1" fill="none" fill-rule="evenodd" sketch:type="MSPage">
        <g id="NZK-Logo" sketch:type="MSLayerGroup">
            <g id="Group" transform="translate(0.435811, 0.000000)" sketch:type="MSShapeGroup">
                <path d="M81.0937145,93.3924242 C81.1412179,94.9333333 81.4070625,96.2872294 81.6055743,97.6995671 C83.0239206,97.7816017 84.4771318,97.8621212 85.9458142,97.9441558 C85.8477568,97.774026 85.7821672,97.5820346 85.7658243,97.3575758 C86.0157618,95.6965368 89.0455186,97.2677489 88.2647635,94.4032468 C86.8348682,93.2517316 83.3307314,93.8601732 81.0937145,93.3924242 L81.0937145,93.3924242 Z" id="Shape" fill="url(#linearGradient-1)"></path>
                <path d="M53.670973,94.658658 C54.3815625,95.0047619 55.2102568,94.4792208 55.2636436,94.4374459 C55.2636436,94.4374459 54.1135389,94.0350649 53.970375,92.9320346 C53.970375,92.9320346 53.8742787,91.0714286 53.859897,90.169697 C53.8466047,89.2679654 53.0342534,87.5573593 53.3393209,86.7199134 C53.5831571,86.0519481 53.9926014,84.9209957 53.7694662,84.1655844 C53.5450236,83.4095238 53.1070338,82.884632 51.8834949,82.5270563 C50.6597382,82.169697 50.2221841,81.3770563 49.9293193,81.0805195 C49.7096706,80.8575758 49.0374324,80.4928571 48.4667382,80.911039 C48.4667382,80.911039 49.6508361,81.3164502 50.3239459,82.9108225 C51.1075338,84.7660173 49.3660338,86.2584416 48.4885287,88.0534632 C48.4885287,88.0534632 46.5167027,91.3978355 47.7942821,93.5937229 C48.2836976,94.4359307 48.7232128,95.0450216 49.3880422,95.4722944 L49.3924003,95.4822511 C49.4002449,95.7222944 49.2148074,96.1270563 48.0117517,96.3452381 C47.1878514,96.3963203 46.347826,96.4536797 45.5008277,96.5138528 C43.4838953,96.6478355 41.4140118,96.8058442 39.3463074,96.9829004 C38.9457973,95.3203463 38.7708193,93.362987 38.8473041,91.1688312 C39.0373176,85.8103896 40.5360709,79.7229437 41.0461875,73.5619048 C41.4381993,68.8242424 42.183,65.1385281 42.2793142,59.8798701 C42.4065709,53.0222944 42.2738666,46.2151515 42.1021571,40.2088745 C42.060973,38.7257576 41.9953834,36.2861472 43.6013463,36.2677489 C44.9264291,36.2538961 44.6773632,37.6385281 45.4485304,38.5238095 C47.5737618,39.4603896 48.750451,37.2714286 48.4107365,35.9619048 C48.1209223,34.8411255 45.905478,33.4417749 45.2646182,31.7939394 C44.9575895,31.0051948 45.6237264,30.5300866 44.6817213,30.0361472 C45.4877534,29.1329004 45.2742061,28.0199134 45.1203649,26.4787879 C44.6050186,26.7991342 43.8865845,26.9307359 42.98925,26.891342 C42.4235676,27.1064935 42.7386588,28.1497835 42.1357145,28.3300866 C41.3231453,27.8402597 42.0679459,24.4839827 40.5933801,24.1188312 C39.1591267,25.2179654 41.3028801,26.5887446 41.2357652,27.9995671 C39.4295473,28.3138528 39.7217584,24.8517316 37.5817095,24.9090909 C36.6619307,27.0638528 39.9246284,27.2705628 39.6496318,28.7534632 C38.9152905,29.1164502 37.6505676,27.2705628 35.7057618,28.1491342 C35.9101571,30.0623377 37.0931655,30.9454545 38.6503176,31.4385281 C38.5208818,33.7450216 38.1404189,39.0454545 38.1796419,40.3147186 C38.1887939,40.6220779 38.2003429,41.641342 38.1589409,43.0577922 C38.1534932,43.2714286 38.1456486,43.4967532 38.138022,43.732684 C37.8052804,54.647619 31.4657584,60.5214286 28.2082905,62.8318182 C23.9565203,65.2878788 20.6260541,67.9829004 21.4737061,75.6824675 C21.6916115,77.6593074 22.7922517,89.7761905 26.3894341,98.3891775 C24.7523108,98.6160173 23.2293699,98.8519481 21.8726909,99.0950216 C21.2544932,99.0277056 20.7829459,98.9435065 20.4950929,98.8435065 C18.7060895,98.2160173 15.8105625,91.6917749 14.7940338,89.8751082 C9.4895625,80.3984848 5.08177196,70.9136364 2.20345946,59.2008658 C-1.65891385,43.4844156 -0.731290541,20.9396104 8.61728716,12.0075758 C12.9969679,7.82186147 18.8135169,6.43181818 24.5324443,6.10822511 C26.8298209,5.97813853 29.5126723,6.58874459 32.134728,6.10822511 C35.014348,5.58030303 37.5222213,3.15454545 40.9248142,1.86125541 C43.3333226,0.945670996 47.8925574,-0.821428571 51.8518986,0.444805195 C55.5103125,1.61515152 58.3844848,8.18333333 59.8570895,14.095671 C59.8570895,14.095671 61.5170929,13.9246753 61.8291334,13.8943723 C81.2519139,12.2287879 95.0668986,18.0800866 104.112806,27.8162338 C113.50126,37.9207792 115.005243,53.4090909 128.580314,59.9075758 C123.235095,62.5872294 117.531421,59.0261905 114.32734,56.6041126 C109.541483,67.7080087 108.725645,88.5452381 114.090476,98.8435065 L104.348144,98.8435065 C100.373549,98.6571429 95.7371757,98.4318182 91.04175,98.1887446 C91.573875,96.5766234 91.1836064,93.8963203 93.0536706,93.8452381 C94.6012348,95.182684 94.5169054,97.9041126 97.2496571,98.2329004 C97.9441216,97.2454545 99.1829139,96.8900433 98.8883057,94.752381 C98.735772,93.2097403 96.1908547,93.6941558 96.3935068,91.8489177 C98.5128547,90.7212121 102.355834,91.5997835 103.832579,89.7238095 C102.189137,89.7725108 100.758806,90.0658009 99.2452348,90.2655844 C99.2047044,89.078355 101.025086,90.0504329 100.741373,88.5790043 C96.3847905,83.7214286 96.4976655,78.7872294 89.818647,77.3437229 C79.0390845,75.0132035 78.0371554,82.5387446 71.5322432,84.487013 C71.2921115,85.2469697 72.1103463,85.6906926 71.4248159,85.834632 C69.0060659,83.7015152 60.9581655,80.8166667 62.6676334,87.404329 C66.2608936,88.6811688 69.9084122,89.9095238 72.7695101,91.8060606 C70.8807061,92.3865801 68.1924071,92.0365801 66.7555389,93.1396104 C69.6783041,98.0435065 72.0698159,92.2688312 76.796402,92.5722944 C76.3599375,93.9181818 77.4727804,93.9530303 77.0356622,95.2991342 C76.784853,96.1497835 75.2551571,95.5166667 75.5388699,96.9878788 C75.5573919,97.1032468 75.5933463,97.2093074 75.6338767,97.3099567 C69.7417145,96.9298701 65.1310541,96.5554113 63.6092027,96.24329 C62.2488193,95.9647186 58.805478,95.9452381 54.6362939,96.0714286 C54.6352044,96.0699134 54.6336791,96.0699134 54.6319358,96.0681818 C54.5707044,96.0705628 53.9747331,96.0930736 53.6692297,96.0930736 C53.6692297,96.0930736 54.1433919,96.0627706 54.4807095,95.7060606 C54.4809274,95.7060606 53.9213463,95.5002165 53.670973,94.658658 L53.670973,94.658658 Z" id="Shape" fill="url(#linearGradient-2)"></path>
            </g>
            <g id="Group" transform="translate(50.336149, 33.766234)" fill="#FFFFFF" sketch:type="MSShapeGroup">
                <path d="M35.7523936,1.21363636 L35.7983716,5.0495671 L38.1741943,5.02164502 L38.1288699,1.18658009 L42.7979291,1.13160173 L42.9210456,11.6030303 L38.2513328,11.6571429 L38.2062264,7.76623377 L35.8288784,7.79329004 L35.8739848,11.6850649 L31.2051436,11.7383117 L31.0842061,1.26709957 L35.7523936,1.21363636 Z" id="Shape"></path>
                <path d="M44.7832652,12.7547619 C47.2471216,12.7448052 49.3368345,13.5898268 51.054147,15.2896104 C52.7684088,16.9893939 53.6302247,19.0651515 53.6395946,21.5218615 C53.6489645,23.9839827 52.8034916,26.0753247 51.1009966,27.7943723 C49.397848,29.5140693 47.3140186,30.3781385 44.8501622,30.3878788 C42.392625,30.3965368 40.3066166,29.5480519 38.5899578,27.841342 C36.8726453,26.134632 36.011701,24.0502165 36.0014595,21.5874459 C35.9920895,19.1313853 36.8382162,17.0487013 38.5424544,15.3359307 C40.2460389,13.6238095 42.325728,12.7632035 44.7832652,12.7547619 L44.7832652,12.7547619 Z" id="Shape"></path>
                <path d="M21.5990017,0.646320346 C22.4928497,0.213636364 23.5425,0.0140692641 24.7486064,0.0471861472 C25.5964764,0.0712121212 26.4696233,0.218398268 27.3697905,0.487662338 C28.2697399,0.757792208 29.0855777,1.12532468 29.8194831,1.58896104 L27.4796149,4.67489177 C26.5530811,4.2004329 25.6912652,3.95194805 24.8965642,3.93030303 C24.3657466,3.91493506 23.936473,4.04025974 23.6085253,4.3034632 C23.2812314,4.56580087 23.1114831,4.92186147 23.0988446,5.36926407 C23.074875,6.22077922 23.6239966,6.66190476 24.7468632,6.69285714 L24.7934949,5.054329 L29.4625541,5.18290043 L29.3028294,10.8292208 C27.4118463,10.8818182 26.1323057,10.8980519 25.4661689,10.880303 C22.8870405,10.8082251 21.112201,10.2147186 20.1388176,9.0978355 C19.165652,7.98095238 18.6991166,6.69848485 18.741826,5.2487013 C18.7708074,4.25194805 19.0285895,3.34393939 19.5201841,2.52424242 C20.0095997,1.70519481 20.7023209,1.07900433 21.5990017,0.646320346 L21.5990017,0.646320346 Z" id="Shape"></path>
                <path d="M17.7178885,1.02467532 L17.7841318,11.497619 L13.1209561,11.5255411 L13.0531875,1.05411255 L17.7178885,1.02467532 Z" id="Shape"></path>
                <path d="M3.33547804,1.30108225 L6.15299493,4.56818182 L5.78059459,1.0465368 L10.4265557,0.562554113 L11.5332973,11.0595238 L8.01477872,11.4257576 L5.41473142,8.37770563 L5.75335642,11.5781385 L1.11502196,12.0603896 L0.0167787162,1.64632035 L3.33547804,1.30108225 Z" id="Shape"></path>
                <path d="M6.52822804,39.5703463 C6.28809628,37.5867965 5.56552196,36.6190476 4.35505743,36.6649351 L4.57514189,39.7088745 L0.85985473,39.9735931 L0.258653716,31.6316017 L3.97306926,31.3683983 L4.17332432,34.1562771 C4.80568581,34.0634199 5.26851689,33.7608225 5.56290709,33.2493506 C5.85860473,32.7376623 5.97474831,32.0642857 5.91591385,31.2307359 L9.70049493,30.9597403 C9.77414696,31.9774892 9.70114865,32.8242424 9.48128209,33.5038961 C9.26032601,34.1820346 8.88204223,34.7577922 8.34512331,35.2329004 C9.55144764,36.0177489 10.2833919,37.3692641 10.5385591,39.2848485 L6.52822804,39.5703463 L6.52822804,39.5703463 Z" id="Shape"></path>
                <path d="M18.2203784,33.3281385 L14.9557196,33.3406926 L14.9587703,34.3753247 L17.2308699,34.3668831 L17.2387145,36.4660173 L14.9679223,36.4744589 L14.9711909,37.5054113 L18.2360676,37.49329 L18.2436943,39.5906926 L11.2543784,39.6177489 L11.2227821,31.2554113 L18.2127517,31.2292208 L18.2203784,33.3281385 Z" id="Shape"></path>
                <path d="M1.09911486,30.5859307 L8.11828378,17.2863636 L0.865302365,17.7772727 L0.572873311,13.4984848 L18.3951385,12.2926407 L11.3768412,25.5937229 L18.8767095,25.0867965 L19.170228,29.3638528 L1.09911486,30.5859307 Z" id="Shape"></path>
                <path d="M26.2369003,32.8274892 L22.9720236,32.8251082 L22.9704983,33.8606061 L25.2432517,33.8623377 L25.2410726,35.9612554 L22.968973,35.9590909 L22.968973,36.9891775 L26.2351571,36.9915584 L26.2336318,39.0904762 L19.2443159,39.0867965 L19.2491098,30.7244589 L26.2384257,30.7277056 L26.2369003,32.8274892 Z" id="Shape"></path>
                <path d="M20.4552162,26.9450216 C18.7394291,25.2383117 17.8760878,23.1538961 17.8667179,20.6904762 C17.857348,18.2352814 18.7052179,16.1510823 20.4077128,14.4398268 C22.1102078,12.7277056 24.1892432,11.8677489 26.6467804,11.858658 C29.1119443,11.8493506 31.201875,12.6928571 32.9176622,14.3926407 C34.6334493,16.0915584 35.4961368,18.1688312 35.5061605,20.6248918 C35.5146588,23.0876623 34.6676605,25.178355 32.9651655,26.8980519 C31.2628885,28.6162338 29.1790591,29.4816017 26.7138953,29.4909091 C24.2576655,29.5 22.1710034,28.6502165 20.4552162,26.9450216 L20.4552162,26.9450216 Z" id="Shape"></path>
                <path d="M33.1451554,35.6006494 C32.5040777,35.652381 31.8453497,35.4636364 31.1661385,35.0300866 L31.4513767,38.4651515 L27.7408834,38.7683983 L27.0520845,30.4348485 L32.137125,30.0199134 C33.2109628,29.9309524 34.0586149,30.1359307 34.6772483,30.628355 C35.297625,31.1229437 35.6410439,31.7677489 35.7075051,32.5649351 C35.7713514,33.3443723 35.553228,34.0300866 35.0529172,34.619697 C34.5508632,35.2106061 33.9158868,35.5372294 33.1451554,35.6006494 L33.1451554,35.6006494 Z" id="Shape"></path>
                <path d="M43.5523176,33.1733766 L40.3247027,32.6850649 L40.1667213,33.7090909 L42.4146334,34.0487013 L42.0949662,36.1229437 L39.849451,35.7833333 L39.6921233,36.8025974 L42.9210456,37.2911255 L42.6037753,39.3662338 L35.6939949,38.3205628 L36.960897,30.0528139 L43.8702416,31.0989177 L43.5523176,33.1733766 Z" id="Shape"></path>
                <path d="M50.2097635,39.7212121 C50.1552872,38.6655844 50.0071115,37.8839827 49.7656723,37.3753247 C49.5248868,36.8675325 49.1422449,36.6106061 48.6140422,36.6036797 L48.5719865,39.6997835 L44.848201,39.6471861 L44.9682669,31.2857143 L50.4668919,31.3623377 C51.4191385,31.3761905 52.1656824,31.6255411 52.7017297,32.1093074 C53.2395203,32.5928571 53.50275,33.1937229 53.4927264,33.908658 C53.4809595,34.6980519 53.1521402,35.311039 52.5062686,35.7484848 C53.3992449,36.7909091 53.9252686,38.1339827 54.076277,39.7770563 L50.2097635,39.7212121 L50.2097635,39.7212121 Z" id="Shape"></path>
                <path d="M53.1981182,7.47835498 L50.9125084,6.94047619 L49.5582264,12.615368 L45.014027,11.5450216 L46.3683091,5.86991342 L44.0835709,5.33138528 L45.1604595,0.816450216 L54.2756605,2.96450216 L53.1981182,7.47835498 Z" id="Shape"></path>
            </g>
            <path d="M16.1130152,36.8993506 C13.4948818,34.3181818 13.4789747,30.1160173 16.076625,27.515368 C18.6550997,24.9341991 22.8373581,24.9015152 25.4605034,27.421645 C23.5289899,27.0361472 21.4469037,27.5887446 19.9538159,29.0811688 C17.5936824,31.4441558 17.6085,35.2590909 19.9869375,37.604329 C20.4883378,38.0989177 21.0566351,38.4811688 21.6615405,38.7660173 C19.6903682,39.0147186 17.6309443,38.3969697 16.1130152,36.8993506 L16.1130152,36.8993506 Z" id="Shape" fill="#FFFFFF" sketch:type="MSShapeGroup"></path>
            <g id="Group" transform="translate(24.405405, 22.294372)" fill="#F9EC31" sketch:type="MSShapeGroup">
                <path d="M2.62924662,31.0106061 L3.26814527,33.1599567 L1.76634122,31.6383117 L0.0427094595,33.1725108 L0.899077703,31.0177489 L0.0313783784,30.1839827 L1.22462838,30.0075758 L1.75566385,28.9292208 L2.29497973,30.0036797 L4.15763514,30.1692641 L2.62924662,31.0106061 Z" id="Shape"></path>
                <path d="M60.2680591,3.68549784 L61.6456571,3.48181818 L62.2581892,2.23722944 L62.8792196,3.47640693 L65.027549,3.66774892 L63.2649122,4.63809524 L64.0020861,7.11731602 L62.2697382,5.36341991 L60.2813514,7.13203463 L61.2695524,4.6461039 L60.2680591,3.68549784 Z" id="Shape"></path>
                <path d="M41.6545794,5.35562771 L42.0653311,3.82619048 L43.0369713,5.08008658 L44.6296419,4.9974026 L43.7288209,6.3038961 L45.3622399,8.63831169 L42.7713446,7.33419913 L41.5323345,8.33181818 L41.4894071,6.74891775 L39.365701,5.93073593 L41.6545794,5.35562771 Z" id="Shape"></path>
                <path d="M28.8088378,0.762121212 L29.1847247,-0.0025974026 L29.5678024,0.759090909 L30.4167618,0.877272727 L29.8046655,1.47489177 L30.1252044,2.6482684 L29.1916976,1.92164502 L28.1217821,2.65519481 L28.1854105,1.59415584 L27.6482736,0.841774892 L28.8088378,0.762121212 Z" id="Shape"></path>
                <path d="M83.7595693,26.6668831 L82.2072111,25.1127706 L81.2536571,25.6158009 L81.4327753,24.5569264 L79.9233446,23.1770563 L81.7258581,23.6538961 L82.1939189,21.7497835 L82.6787584,23.6506494 L83.7493277,23.8017316 L82.9770709,24.5515152 L83.7595693,26.6668831 Z" id="Shape"></path>
            </g>
            <path d="M128.321878,100.054329 L128.635226,99.9753247 C123.619262,100.045887 114.677296,98.8437229 114.526287,98.8437229 C98.8752314,98.8437229 76.0696875,97.3097403 76.0696875,97.3097403 C69.2355203,96.865368 64.0295422,96.1463203 62.9668176,96.045671 C61.9040929,95.9450216 59.2491334,95.9435065 57.6804324,95.9945887 C55.9631199,96.0489177 43.5473057,96.1270563 26.8248091,98.3893939 C20.0516554,99.3056277 10.626375,99.2484848 10.626375,99.2484848 C8.19367905,99.2484848 1.07340203,99.8149351 -0.103505068,99.8575758 L-0.103505068,100.054113 L128.321878,100.054113 L128.321878,100.054329 Z" id="Shape" fill="url(#linearGradient-3)" sketch:type="MSShapeGroup"></path>
            <path d="M115.07628,96.371645 L115.07628,96.3638528 C115.07628,95.4909091 115.788613,94.7616883 116.69401,94.7616883 C117.597664,94.7616883 118.302152,95.4822511 118.302152,96.3545455 L118.302152,96.3638528 C118.302152,97.2352814 117.589383,97.9651515 116.68464,97.9651515 C115.779897,97.9651515 115.07628,97.2437229 115.07628,96.371645 L115.07628,96.371645 Z M118.115189,96.3638528 L118.115189,96.3545455 C118.115189,95.5714286 117.5044,94.9380952 116.694228,94.9380952 C115.87839,94.9380952 115.263679,95.5798701 115.263679,96.3638528 L115.263679,96.371645 C115.263679,97.1556277 115.873814,97.7880952 116.684858,97.7880952 C117.499606,97.7880952 118.115189,97.1463203 118.115189,96.3638528 L118.115189,96.3638528 Z M116.025476,95.4645022 L116.787492,95.4645022 C117.018907,95.4645022 117.197372,95.5311688 117.317437,95.6502165 C117.410919,95.7430736 117.459948,95.8714286 117.459948,96.0225108 L117.459948,96.0311688 C117.459948,96.3051948 117.308068,96.4792208 117.089944,96.5582251 L117.509194,97.169697 L117.068154,97.169697 L116.702726,96.6201299 L116.694228,96.6201299 L116.404196,96.6201299 L116.404196,97.169697 L116.025694,97.169697 L116.025694,95.4645022 L116.025476,95.4645022 Z M116.782698,96.2971861 C116.974454,96.2971861 117.076652,96.1941558 117.076652,96.0534632 L117.076652,96.0441558 C117.076652,95.8800866 116.960508,95.7963203 116.773328,95.7963203 L116.403978,95.7963203 L116.403978,96.2969697 L116.782698,96.2969697 L116.782698,96.2971861 Z" id="Shape" fill="url(#linearGradient-4)" sketch:type="MSShapeGroup"></path>
        </g>
    </g>
</svg>