<?xml version="1.0" encoding="UTF-8" standalone="no"?>
<svg width="209px" height="50px" viewBox="0 0 209 50" version="1.1" xmlns="http://www.w3.org/2000/svg" xmlns:xlink="http://www.w3.org/1999/xlink" xmlns:sketch="http://www.bohemiancoding.com/sketch/ns">
    <!-- Generator: Sketch 3.0.2 (7799) - http://www.bohemiancoding.com/sketch -->
    <title>Untitled 2</title>
    <description>Created with Sketch.</description>
    <defs></defs>
    <g id="Page-1" stroke="none" stroke-width="1" fill="none" fill-rule="evenodd" sketch:type="MSPage">
        <g id="logo-walmart" sketch:type="MSLayerGroup">
            <g id="Page-1" sketch:type="MSShapeGroup">
                <g id="New_Walmart_Logo">
                    <g id="layer1" transform="translate(0.054433, 0.046521)">
                        <path d="M184.211254,16.5322831 C185.377295,16.5322831 186.337291,15.9278655 186.466937,15.1473516 L187.618315,2.17313513 C187.618315,0.890477875 186.110411,-0.162254604 184.215113,-0.162254604 C182.321358,-0.162254604 180.814997,0.890477875 180.814997,2.17313513 L181.965604,15.1473516 C182.092163,15.9278655 183.052159,16.5322831 184.215113,16.5322831 L184.211254,16.5322831" id="path2974" fill="#FDBB30"></path>
                        <path d="M177.174111,20.5848033 C177.75906,19.5797475 177.715073,18.4501171 177.098484,17.9479738 L166.396531,10.4673444 C165.283738,9.82524681 163.61532,10.5980709 162.668443,12.2344585 C161.718479,13.8685393 161.88671,15.6940958 162.996416,16.3361934 L174.84666,21.8343945 C175.587493,22.108151 176.59765,21.5814003 177.177969,20.5771135 L177.174111,20.5848033" id="path2976" fill="#FDBB30"></path>
                        <path d="M191.254571,20.5778825 C191.838749,21.5821693 192.843504,22.10892 193.585109,21.8351634 L205.435353,16.3369624 C206.552004,15.6948648 206.710975,13.8693082 205.769499,12.2352275 C204.817992,10.6003778 203.146487,9.82601579 202.03678,10.4681134 L191.334056,17.9487427 C190.722097,18.4501171 190.676567,19.5805165 191.25843,20.5855723 L191.253799,20.5778825" id="path2978" fill="#FDBB30"></path>
                        <path d="M184.211254,32.739288 C185.377295,32.739288 186.337291,33.3383228 186.466937,34.1196056 L187.618315,47.0922842 C187.618315,48.3787863 186.110411,49.4292119 184.215113,49.4292119 C182.321358,49.4292119 180.814997,48.3787863 180.814997,47.0922842 L181.965604,34.1196056 C182.092163,33.3383228 183.052159,32.739288 184.215113,32.739288 L184.211254,32.739288" id="path2980" fill="#FDBB30"></path>
                        <path d="M191.254571,28.6859988 C191.838749,27.6786361 192.843504,27.1564993 193.585109,27.4333318 L205.435353,32.9276879 C206.552004,33.5705545 206.710975,35.397649 205.769499,37.0332677 C204.817992,38.6627345 203.146487,39.4394035 202.03678,38.7980749 L191.334056,31.3243664 C190.722097,30.819147 190.676567,29.6879787 191.25843,28.6836919 L191.253799,28.6836919" id="path2982" fill="#FDBB30"></path>
                        <path d="M177.174111,28.6844609 C177.75906,29.6879787 177.715073,30.819147 177.098484,31.3251353 L166.396531,38.7988439 C165.283738,39.4401725 163.61532,38.6635035 162.668443,37.0340367 C161.718479,35.398418 161.88671,33.5713235 162.996416,32.9284569 L174.84666,27.4341007 C175.587493,27.1572682 176.59765,27.6794051 177.177969,28.6867678 L177.174111,28.6867678" id="path2984" fill="#FDBB30"></path>
                        <path d="M116.705147,31.300528 C116.705147,31.6988592 116.669648,32.1094941 116.560067,32.4701453 C116.106307,33.9681167 114.549785,35.2346254 112.602783,35.2346254 C110.979124,35.2346254 109.689611,34.3156953 109.689611,32.3747919 C109.689611,29.4042254 112.970885,28.5837246 116.705918,28.604487 L116.705918,31.300528 L116.705147,31.300528 L116.705147,31.300528 Z M122.563902,26.1237602 C122.563902,21.225363 120.463332,16.9152347 113.365996,16.9152347 C109.722794,16.9152347 106.83123,17.9349011 105.253101,18.8438345 L106.409109,22.7817768 C107.851419,21.8743814 110.150317,21.1230887 112.325742,21.1230887 C115.925728,21.113092 116.515308,23.1547317 116.515308,24.4612273 L116.515308,24.7703569 C108.667879,24.7588222 103.707383,27.4663979 103.707383,32.9822854 C103.707383,36.3527211 106.233933,39.5093806 110.625685,39.5093806 C113.324324,39.5093806 115.584637,38.4358857 116.937429,36.7149103 L117.070933,36.7149103 C117.070933,36.7149103 117.966107,40.4513801 122.907309,39.0218478 C122.649561,37.4677409 122.564674,35.8090529 122.564674,33.8143209 L122.564674,26.1237603 L122.563902,26.1237602 L122.563902,26.1237602 Z" id="path2986" fill="#1A75CF"></path>
                        <path d="M0.294018164,10.2443405 C0.294018164,10.2443405 5.42197275,31.1828742 6.24074774,34.5809931 C7.19611385,38.5473877 8.91777926,40.0076791 13.8790464,39.0218478 L17.0808347,26.0407105 C17.8926644,22.8148429 18.4359421,20.5148262 18.9591555,17.236668 L19.0502162,17.236668 C19.417546,20.5494303 19.9384443,22.8248396 20.6067376,26.0514762 C20.6067376,26.0514762 21.9093692,31.9449325 22.5776625,35.0393047 C23.2467275,38.1329079 25.1088425,40.083808 29.9690168,39.0218478 L37.5988267,10.2435715 L31.440651,10.2435715 L28.834616,22.6864234 C28.1339113,26.3067773 27.4988012,29.1381586 27.0087709,32.4501519 L26.9215686,32.4501519 C26.476297,29.1681488 25.9090967,26.4513454 25.1975881,22.923269 L22.4866018,10.2435715 L16.0691344,10.2435715 L13.1675379,22.6033736 C12.3464478,26.3606058 11.57629,29.3926907 11.0885748,32.593951 L10.9998291,32.593951 C10.4989951,29.5795526 9.8322452,25.7669539 9.11070457,22.1319894 C9.11070457,22.1319894 7.38826745,13.2910359 6.78248199,10.2435715 L0.294018164,10.2435715" id="path2988" fill="#1A75CF"></path>
                        <path d="M49.2476566,31.300528 C49.2476566,31.6988592 49.2121583,32.1094941 49.1010333,32.4701453 C48.6480447,33.9681167 47.0907517,35.2346254 45.1437495,35.2346254 C43.5200901,35.2346254 42.2321208,34.3156953 42.2321208,32.3747919 C42.2321208,29.4042254 45.5126227,28.5837246 49.2484283,28.604487 L49.2484283,31.300528 L49.2476566,31.300528 L49.2476566,31.300528 Z M55.1056405,26.1237602 C55.1056405,21.225363 53.0050698,16.9152347 45.9092771,16.9152347 C42.2653039,16.9152347 39.3714244,17.9349011 37.7940671,18.8438345 L38.9485321,22.7817768 C40.3908417,21.8743814 42.6897396,21.1230887 44.865937,21.1230887 C48.4682383,21.113092 49.0578181,23.1547317 49.0578181,24.4612273 L49.0578181,24.7703569 C41.2073016,24.7588222 36.2491213,27.4663979 36.2491213,32.9822854 C36.2491213,36.3527211 38.7741276,39.5093806 43.1627925,39.5093806 C45.8652901,39.5093806 48.1240596,38.4358857 49.4783952,36.7149103 L49.6103561,36.7149103 C49.6103561,36.7149103 50.5078446,40.4513801 55.4482758,39.0218478 C55.1897559,37.4677409 55.1056405,35.8090529 55.1056405,33.8143209 L55.1056405,26.1237603 L55.1056405,26.1237602 L55.1056405,26.1237602 Z" id="path2990" fill="#1A75CF"></path>
                        <path d="M64.8823232,32.9130773 L64.8823232,10.2443405 L59.0166223,10.2443405 L59.0166223,39.0226168 L64.8823232,39.0226168 L64.8823232,32.9130773" id="path2992" fill="#1A75CF"></path>
                        <path d="M141.61489,10.2443405 L141.61489,31.4735483 C141.61489,34.401821 142.168972,36.4511505 143.350446,37.7053555 C144.385298,38.8019198 146.086127,39.5116875 148.125733,39.5116875 C149.860518,39.5116875 151.565977,39.1817955 152.370862,38.8842005 L152.295235,34.3180022 C151.696395,34.4641083 151.008809,34.5817621 150.067334,34.5817621 C148.068628,34.5817621 147.400334,33.3060257 147.400334,30.6784239 L147.400334,22.5556969 L152.508225,22.5556969 L152.508225,17.0490371 L147.400334,17.0490371 L147.400334,10.2443405 L141.61489,10.2443405" id="path2994" fill="#1A75CF"></path>
                        <path d="M126.474884,17.4035365 L126.474884,39.0226168 L132.525793,39.0226168 L132.525793,27.9531617 C132.525793,27.3548959 132.562063,26.833528 132.656983,26.3567609 C133.104569,24.0367508 134.884112,22.5556969 137.439987,22.5556969 C138.140691,22.5556969 138.642297,22.6318259 139.185575,22.7087238 L139.185575,17.0490371 C138.729499,16.9582976 138.420047,16.9160037 137.852847,16.9160037 C135.594849,16.9160037 133.025856,18.3678364 131.947789,21.482202 L131.784188,21.482202 L131.784188,17.4035365 L126.474884,17.4035365" id="path2996" fill="#1A75CF"></path>
                        <path d="M68.9893171,17.4035365 L68.9893171,39.0226168 L74.8843427,39.0226168 L74.8843427,26.3452263 C74.8843427,25.7500364 74.9545675,25.1210114 75.1613834,24.5758052 C75.6498703,23.2992998 76.8421487,21.8044043 78.7443922,21.8044043 C81.1243187,21.8044043 82.2355685,23.808364 82.2355685,26.7004946 L82.2355685,39.0218478 L88.1259639,39.0218478 L88.1259639,26.1898925 C88.1259639,25.6223858 88.2039057,24.9379944 88.3721365,24.4373889 C88.8559932,22.9847873 90.140104,21.8036353 91.9088432,21.8036353 C94.3204095,21.8036353 95.4779613,23.772222 95.4779613,27.1764927 L95.4779613,39.0210788 L101.372215,39.0210788 L101.372215,26.2875528 C101.372215,19.5728267 97.950492,16.9144658 94.0873558,16.9144658 C92.3780376,16.9144658 91.0275604,17.3412492 89.8059574,18.08639 C88.7803665,18.7161839 87.8604986,19.6081998 87.0579294,20.780893 L86.9707271,20.780893 C86.0392838,18.4508861 83.8476523,16.9144658 80.9915861,16.9144658 C77.3221468,16.9144658 75.6730213,18.7677055 74.6728965,20.339499 L74.5849226,20.339499 L74.5849226,17.4019985 L68.9893171,17.4019985" id="path2998" fill="#1A75CF"></path>
                        <path d="M208.407946,37.9714223 L208.496691,37.9714223 C208.614762,37.9714223 208.690388,37.9222076 208.690388,37.8506925 C208.690388,37.7684118 208.619392,37.723811 208.50981,37.723811 C208.471997,37.723811 208.433412,37.7315008 208.407946,37.7315008 L208.407946,37.9737292 L208.407946,37.9714223 L208.407946,37.9714223 Z M208.394055,38.5543085 L208.080744,38.5543085 L208.080744,37.536949 C208.151741,37.5231074 208.317657,37.4985001 208.529875,37.4985001 C208.760613,37.4985001 208.864021,37.5307972 208.939648,37.5815498 C209.003699,37.6261506 209.050001,37.7022796 209.050001,37.8045538 C209.050001,37.909135 208.953538,37.9975676 208.811545,38.0360165 L208.811545,38.0490892 C208.927301,38.0798483 208.99058,38.1636671 209.023763,38.3105421 C209.055403,38.4574171 209.074696,38.5173975 209.09476,38.5543085 L208.739777,38.5543085 C208.708909,38.5166285 208.690388,38.4266579 208.669552,38.3366874 C208.649488,38.2336442 208.600871,38.1821226 208.49592,38.1821226 L208.393283,38.1821226 L208.393283,38.5543085 L208.394055,38.5543085 L208.394055,38.5543085 Z M208.523701,37.205519 C208.073799,37.205519 207.734251,37.5707841 207.734251,38.0367855 C207.734251,38.4904832 208.074571,38.8603622 208.536048,38.8603622 C208.999069,38.868052 209.339389,38.4904832 209.339389,38.0290957 C209.339389,37.5700151 208.999069,37.205519 208.530646,37.205519 L208.523701,37.205519 L208.523701,37.205519 Z M208.543765,36.9294555 C209.171158,36.9294555 209.671221,37.4216022 209.671221,38.0290957 C209.671221,38.6435101 209.171158,39.1364257 208.535276,39.1364257 C207.899395,39.1364257 207.393159,38.6427411 207.393159,38.0290957 C207.393159,37.4216022 207.900166,36.9294555 208.535276,36.9294555 L208.542222,36.9294555 L208.543765,36.9294555 L208.543765,36.9294555 Z" id="path3000" fill="#FDBB30"></path>
                    </g>
                </g>
            </g>
        </g>
    </g>
</svg>