<svg version="1.1" xmlns="http://www.w3.org/2000/svg" xmlns:xlink="http://www.w3.org/1999/xlink" x="0px" y="0px" height="100%" viewBox="0 0 285 77" enable-background="new 0 0 285 77" xml:space="preserve">
<path d="M96.735,19.54L96.735,19.54c-0.853,0.933-1.485,1.839-1.982,2.704c-0.496,0.862-0.857,1.678-1.154,2.422l-0.242,0.731
  l-0.238-0.718c-0.008-0.022-0.445-0.979-1.036-2.095c-0.589-1.118-1.326-2.392-1.936-3.041c-1.45-1.73-3.318-3.074-5.499-3.985
  c-2.182-0.909-4.68-1.383-7.385-1.383c-1.511,0-4.142,0.221-6.914,1.495c-2.773,1.269-5.688,3.581-7.776,7.757l-0.497,0.889
  l0.006-1.003v-3.84v-4.206h-0.914h-0.914v21.971v21.976h0.914h0.914V46.488V34.136c0-2.929,0.331-5.458,1.016-7.657
  c0.688-2.198,1.733-4.07,3.158-5.693c1.188-1.557,2.892-2.837,4.822-3.707c1.934-0.871,4.096-1.329,6.196-1.247
  c2.639,0.087,4.963,0.578,6.958,1.481c1.995,0.9,3.653,2.204,4.975,3.906c1.023,1.37,1.835,2.777,2.394,4.642
  c0.562,1.863,0.863,4.182,0.863,7.363c0,0.216-0.002,0.433-0.005,0.657c-0.006,0.221-0.006,0.447-0.014,0.676v12.138v12.516h0.913
  h0.913V46.697V34.554c0-3.369,0.126-5.775,0.627-7.826c0.499-2.046,1.37-3.74,2.865-5.677c1.474-1.923,3.469-3.227,5.555-4.05
  c2.092-0.827,4.277-1.167,6.134-1.167c2.277,0,4.308,0.321,6.075,0.968c1.769,0.641,3.274,1.609,4.508,2.889
  c1.547,1.547,2.695,3.538,3.458,6.001c0.765,2.469,1.143,5.412,1.143,8.863v12.143v12.516h0.91h0.914V46.697V34.554
  c0-3.677-0.424-6.863-1.266-9.537c-0.84-2.676-2.098-4.836-3.77-6.473c-1.45-1.451-3.179-2.542-5.179-3.271
  c-2.004-0.733-4.269-1.099-6.794-1.099c-2.467,0-4.885,0.502-7.069,1.424C100.197,16.518,98.25,17.857,96.735,19.54"></path>
<path fill="none" stroke="#000000" stroke-width="0.254" d="M96.735,19.54L96.735,19.54c-0.853,0.933-1.485,1.839-1.982,2.704
  c-0.496,0.862-0.857,1.678-1.154,2.422l-0.242,0.731l-0.238-0.718c-0.008-0.022-0.445-0.979-1.036-2.095
  c-0.589-1.118-1.326-2.392-1.936-3.041c-1.45-1.73-3.318-3.074-5.499-3.985c-2.182-0.909-4.68-1.383-7.385-1.383
  c-1.511,0-4.142,0.221-6.914,1.495c-2.773,1.269-5.688,3.581-7.776,7.757l-0.497,0.889l0.006-1.003v-3.84v-4.206h-0.914h-0.914
  v21.971v21.976h0.914h0.914V46.488V34.136c0-2.929,0.331-5.458,1.016-7.657c0.688-2.198,1.733-4.07,3.158-5.693
  c1.188-1.557,2.892-2.837,4.822-3.707c1.934-0.871,4.096-1.329,6.196-1.247c2.639,0.087,4.963,0.578,6.958,1.481
  c1.995,0.9,3.653,2.204,4.975,3.906c1.023,1.37,1.835,2.777,2.394,4.642c0.562,1.863,0.863,4.182,0.863,7.363
  c0,0.216-0.002,0.433-0.005,0.657c-0.006,0.221-0.006,0.447-0.014,0.676v12.138v12.516h0.913h0.913V46.697V34.554
  c0-3.369,0.126-5.775,0.627-7.826c0.499-2.046,1.37-3.74,2.865-5.677c1.474-1.923,3.469-3.227,5.555-4.05
  c2.092-0.827,4.277-1.167,6.134-1.167c2.277,0,4.308,0.321,6.075,0.968c1.769,0.641,3.274,1.609,4.508,2.889
  c1.547,1.547,2.695,3.538,3.458,6.001c0.765,2.469,1.143,5.412,1.143,8.863v12.143v12.516h0.91h0.914V46.697V34.554
  c0-3.677-0.424-6.863-1.266-9.537c-0.84-2.676-2.098-4.836-3.77-6.473c-1.45-1.451-3.179-2.542-5.179-3.271
  c-2.004-0.733-4.269-1.099-6.794-1.099c-2.467,0-4.885,0.502-7.069,1.424C100.197,16.518,98.25,17.857,96.735,19.54"></path>
<path d="M130.792,37.327v-0.043v-0.042c0-6.103,2.289-11.455,6.096-15.281c3.809-3.827,9.135-6.126,15.204-6.126
  c4.451,0,8.621,1.285,12.062,3.562c3.443,2.278,6.156,5.548,7.714,9.525c0.495,1.167,0.878,2.422,1.136,3.74
  c0.256,1.315,0.391,2.687,0.391,4.075c0.045,1.37-0.045,2.74-0.261,4.068c-0.216,1.325-0.55,2.612-1.015,3.829
  c-1.529,4.323-4.186,7.828-7.604,10.248c-3.422,2.42-7.6,3.769-12.172,3.769c-7.016,0-12.379-2.683-16.004-6.688
  C132.718,47.955,130.834,42.623,130.792,37.327 M128.968,37.241c0,5.588,2.025,11.354,5.93,15.724
  c3.905,4.37,9.682,7.342,17.194,7.342c4.604,0,8.729-1.104,12.213-3.211c3.48-2.111,6.32-5.221,8.346-9.234l0.486-0.985l0.006,1.104
  v5.435v5.801h0.912h0.912V37.241V15.267h-0.912h-0.912v5.927v5.559l-0.004,1.189l-0.498-1.097c-1.19-3.151-3.744-6.317-7.289-8.699
  c-3.543-2.381-8.088-3.972-13.26-3.972c-7.512,0-13.289,2.968-17.194,7.34C130.994,25.879,128.968,31.646,128.968,37.241"></path>
<path fill="none" stroke="#000000" stroke-width="0.254" d="M130.792,37.327v-0.043v-0.042c0-6.103,2.289-11.455,6.096-15.281
  c3.809-3.827,9.135-6.126,15.204-6.126c4.451,0,8.621,1.285,12.062,3.562c3.443,2.278,6.156,5.548,7.714,9.525
  c0.495,1.167,0.878,2.422,1.136,3.74c0.256,1.315,0.391,2.687,0.391,4.075c0.045,1.37-0.045,2.74-0.261,4.068
  c-0.216,1.325-0.55,2.612-1.015,3.829c-1.529,4.323-4.186,7.828-7.604,10.248c-3.422,2.42-7.6,3.769-12.172,3.769
  c-7.016,0-12.379-2.683-16.004-6.688C132.718,47.955,130.834,42.623,130.792,37.327 M128.968,37.241
  c0,5.588,2.025,11.354,5.93,15.724c3.905,4.37,9.682,7.342,17.194,7.342c4.604,0,8.729-1.104,12.213-3.211
  c3.48-2.111,6.32-5.221,8.346-9.234l0.486-0.985l0.006,1.104v5.435v5.801h0.912h0.912V37.241V15.267h-0.912h-0.912v5.927v5.559
  l-0.004,1.189l-0.498-1.097c-1.19-3.151-3.744-6.317-7.289-8.699c-3.543-2.381-8.088-3.972-13.26-3.972
  c-7.512,0-13.289,2.968-17.194,7.34C130.994,25.879,128.968,31.646,128.968,37.241"></path>
<path d="M177.002,37.325c0,5.709,2.023,11.452,5.977,15.771c3.955,4.319,9.838,7.213,17.57,7.213c4.879,0,9.389-1.431,13.081-3.966
  c3.69-2.536,6.565-6.184,8.167-10.618h-1.113h-0.927c-1.063,3.099-3.351,6.309-6.676,8.752c-3.325,2.446-7.7,4.127-12.947,4.172
  c-2.843,0-5.593-0.529-8.124-1.527c-2.531-1.007-4.847-2.488-6.824-4.4c-2.053-1.979-3.64-4.34-4.72-6.968
  c-1.073-2.618-1.637-5.501-1.637-8.512c0-2.96,0.606-5.952,1.687-8.628c1.08-2.679,2.635-5.042,4.518-6.752
  c2.386-2.128,4.643-3.614,7.07-4.577c2.429-0.968,5.03-1.41,8.104-1.451c3.69-0.047,7.749,0.955,11.315,3.134
  c3.565,2.182,6.629,5.54,8.314,10.21h0.926h1.115c-1.947-5.529-5.477-9.28-9.475-11.648c-3.995-2.37-8.457-3.355-12.271-3.355
  c-6.596,0-12.377,2.488-16.509,6.625C179.488,24.939,177.002,30.725,177.002,37.325"></path>
<path fill="none" stroke="#000000" stroke-width="0.254" d="M177.002,37.325c0,5.709,2.023,11.452,5.977,15.771
  c3.955,4.319,9.838,7.213,17.57,7.213c4.879,0,9.389-1.431,13.081-3.966c3.69-2.536,6.565-6.184,8.167-10.618h-1.113h-0.927
  c-1.063,3.099-3.351,6.309-6.676,8.752c-3.325,2.446-7.7,4.127-12.947,4.172c-2.843,0-5.593-0.529-8.124-1.527
  c-2.531-1.007-4.847-2.488-6.824-4.4c-2.053-1.979-3.64-4.34-4.72-6.968c-1.073-2.618-1.637-5.501-1.637-8.512
  c0-2.96,0.606-5.952,1.687-8.628c1.08-2.679,2.635-5.042,4.518-6.752c2.386-2.128,4.643-3.614,7.07-4.577
  c2.429-0.968,5.03-1.41,8.104-1.451c3.69-0.047,7.749,0.955,11.315,3.134c3.565,2.182,6.629,5.54,8.314,10.21h0.926h1.115
  c-1.947-5.529-5.477-9.28-9.475-11.648c-3.995-2.37-8.457-3.355-12.271-3.355c-6.596,0-12.377,2.488-16.509,6.625
  C179.488,24.939,177.002,30.725,177.002,37.325"></path>
<path d="M255.879,15.264c-0.066,0.161-4.432,10.417-8.779,20.644c-4.346,10.218-8.672,20.396-8.672,20.396l-0.24,0.658l-0.242-0.661
  c0,0-4.059-10.177-8.135-20.395c-4.074-10.218-8.166-20.48-8.23-20.644h-0.928h-1.107c0.141,0.352,4.501,11.361,8.833,22.28
  c4.334,10.921,8.63,21.751,8.63,21.751l0.03,0.104l-0.036,0.101c0,0-1.852,4.224-3.743,8.532c-1.896,4.31-3.821,8.707-3.977,9.056
  h1.161h0.949c0.065-0.151,6.662-15.431,13.273-30.757c6.618-15.328,13.256-30.707,13.409-31.066h-1.205H255.879z"></path>
<path fill="none" stroke="#000000" stroke-width="0.254" d="M255.879,15.264c-0.066,0.161-4.432,10.417-8.779,20.644
  c-4.346,10.218-8.672,20.396-8.672,20.396l-0.24,0.658l-0.242-0.661c0,0-4.059-10.177-8.135-20.395
  c-4.074-10.218-8.166-20.48-8.23-20.644h-0.928h-1.107c0.141,0.352,4.501,11.361,8.833,22.28c4.334,10.921,8.63,21.751,8.63,21.751
  l0.03,0.104l-0.036,0.101c0,0-1.852,4.224-3.743,8.532c-1.896,4.31-3.821,8.707-3.977,9.056h1.161h0.949
  c0.065-0.151,6.662-15.431,13.273-30.757c6.618-15.328,13.256-30.707,13.409-31.066h-1.205H255.879z"></path>
<path d="M258.146,25.405c0.121,3.68,1.379,6.007,3.459,7.654c2.071,1.65,4.961,2.622,8.336,3.595
  c3.789,0.837,6.48,2.046,8.244,3.803c1.758,1.756,2.592,4.062,2.674,7.098c0.004,0.06,0.004,0.114,0.004,0.178
  c0.003,0.055,0.003,0.111,0.003,0.168c0,1.451-0.261,2.843-0.767,4.121c-0.506,1.28-1.257,2.445-2.216,3.439
  c-0.999,1.029-2.198,1.826-3.544,2.368c-1.346,0.538-2.829,0.821-4.386,0.821c-3.418,0-6.281-1.129-8.302-3.099
  c-2.023-1.97-3.2-4.782-3.264-8.151h-0.92h-0.926c-0.006,0.102-0.011,0.199-0.014,0.302c-0.004,0.095-0.006,0.192-0.006,0.289
  c0,1.544,0.273,3.011,0.803,4.366c0.535,1.354,1.32,2.602,2.359,3.707c1.267,1.352,2.838,2.41,4.584,3.131
  c1.752,0.727,3.688,1.113,5.684,1.113c1.836,0,3.589-0.354,5.189-1.024c1.594-0.675,3.037-1.663,4.244-2.944
  c1.162-1.23,2.035-2.652,2.592-4.191c0.562-1.541,0.803-3.203,0.705-4.907c-0.24-4.552-1.879-7.232-4.19-8.982
  c-2.312-1.746-5.3-2.559-8.237-3.35l-0.189-0.052l-0.183-0.049c-3.114-0.873-5.528-1.814-7.194-3.237
  c-1.67-1.424-2.588-3.336-2.722-6.148c-0.062-1.263,0.125-2.477,0.525-3.598c0.405-1.118,1.028-2.136,1.854-3
  c0.916-0.966,2.053-1.714,3.342-2.22c1.287-0.505,2.729-0.77,4.264-0.77c1.404-0.024,2.725,0.188,3.913,0.622
  c1.19,0.431,2.243,1.078,3.104,1.926c0.834,0.82,1.477,1.822,1.918,2.976c0.438,1.148,0.678,2.452,0.701,3.875h0.904h0.923
  c-0.058-3.32-1.207-6.064-3.2-7.986c-1.988-1.923-4.826-3.028-8.268-3.074c-2.938,0-5.887,0.87-8.107,2.708
  C259.63,18.722,258.146,21.526,258.146,25.405"></path>
<path fill="none" stroke="#000000" stroke-width="0.254" d="M258.146,25.405c0.121,3.68,1.379,6.007,3.459,7.654
  c2.071,1.65,4.961,2.622,8.336,3.595c3.789,0.837,6.48,2.046,8.244,3.803c1.758,1.756,2.592,4.062,2.674,7.098
  c0.004,0.06,0.004,0.114,0.004,0.178c0.003,0.055,0.003,0.111,0.003,0.168c0,1.451-0.261,2.843-0.767,4.121
  c-0.506,1.28-1.257,2.445-2.216,3.439c-0.999,1.029-2.198,1.826-3.544,2.368c-1.346,0.538-2.829,0.821-4.386,0.821
  c-3.418,0-6.281-1.129-8.302-3.099c-2.023-1.97-3.2-4.782-3.264-8.151h-0.92h-0.926c-0.006,0.102-0.011,0.199-0.014,0.302
  c-0.004,0.095-0.006,0.192-0.006,0.289c0,1.544,0.273,3.011,0.803,4.366c0.535,1.354,1.32,2.602,2.359,3.707
  c1.267,1.352,2.838,2.41,4.584,3.131c1.752,0.727,3.688,1.113,5.684,1.113c1.836,0,3.589-0.354,5.189-1.024
  c1.594-0.675,3.037-1.663,4.244-2.944c1.162-1.23,2.035-2.652,2.592-4.191c0.562-1.541,0.803-3.203,0.705-4.907
  c-0.24-4.552-1.879-7.232-4.19-8.982c-2.312-1.746-5.3-2.559-8.237-3.35l-0.189-0.052l-0.183-0.049
  c-3.114-0.873-5.528-1.814-7.194-3.237c-1.67-1.424-2.588-3.336-2.722-6.148c-0.062-1.263,0.125-2.477,0.525-3.598
  c0.405-1.118,1.028-2.136,1.854-3c0.916-0.966,2.053-1.714,3.342-2.22c1.287-0.505,2.729-0.77,4.264-0.77
  c1.404-0.024,2.725,0.188,3.913,0.622c1.19,0.431,2.243,1.078,3.104,1.926c0.834,0.82,1.477,1.822,1.918,2.976
  c0.438,1.148,0.678,2.452,0.701,3.875h0.904h0.923c-0.058-3.32-1.207-6.064-3.2-7.986c-1.988-1.923-4.826-3.028-8.268-3.074
  c-2.938,0-5.887,0.87-8.107,2.708C259.63,18.722,258.146,21.526,258.146,25.405"></path>
<polygon points="264.354,4.521 263.214,1 262.062,4.521 258.337,4.521 261.354,6.704 260.225,10.223 263.205,8.048 266.209,10.233
  265.062,6.698 268.072,4.521 "></polygon>
<polygon fill="#FF0000" points="26.607,13.115 20.81,30.933 1.924,30.933 17.223,42.007 11.428,59.832 26.585,48.802 41.831,59.885
  36.006,41.979 51.238,30.933 32.412,30.933 "></polygon>
</svg>