<?xml version="1.0" encoding="UTF-8" standalone="no"?>
<svg width="150px" height="150px" viewBox="0 0 150 150" version="1.1" xmlns="http://www.w3.org/2000/svg" xmlns:xlink="http://www.w3.org/1999/xlink" xmlns:sketch="http://www.bohemiancoding.com/sketch/ns">
    <!-- Generator: Sketch 3.0.4 (8053) - http://www.bohemiancoding.com/sketch -->
    <title>Untitled 3</title>
    <desc>Created with Sketch.</desc>
    <defs></defs>
    <g id="Page-1" stroke="none" stroke-width="1" fill="none" fill-rule="evenodd" sketch:type="MSPage">
        <rect id="Rectangle-1" stroke="#E3E3E3" fill="#FFFFFF" sketch:type="MSShapeGroup" x="0" y="0" width="150" height="150" rx="3"></rect>
        <path d="M65.7,57.8 C68.8,55.2 72.7,53.6 76.5,53.6 C79.4,53.6 81.4,54.5 81.4,56.9 C81.4,62.5 64.7,64 64.7,76.2 C64.7,79.6 66.5,83.2 69,86.6 L82.2,81.3 C81.6,80.2 81.1,79.1 81.1,78.2 C81.1,72.3 98.3,71.8 98.3,55.8 C98.3,49.7 95.7,45.8 91.2,43 C87.1,40.4 82.1,39.2 76.3,39.2 C69.3,39.2 62.3,41 56.5,45.9 L65.7,57.8 Z M68.6,99.4 C68.6,105.6 73.2,110 79.2,110 C85.3,110 89.9,105.6 89.9,99.4 C89.9,93.2 85.3,88.7 79.2,88.7 C73.1,88.7 68.6,93.3 68.6,99.4 L68.6,99.4 Z" id="?" fill="#858585" sketch:type="MSShapeGroup"></path>
    </g>
</svg>